<svg width="2484" height="518" xmlns="http://www.w3.org/2000/svg" xmlns:xlink="http://www.w3.org/1999/xlink" xml:space="preserve" overflow="hidden"><defs><clipPath id="clip0"><rect x="843" y="1269" width="2484" height="518"/></clipPath><clipPath id="clip1"><rect x="844" y="1302" width="410" height="409"/></clipPath><clipPath id="clip2"><rect x="844" y="1302" width="410" height="409"/></clipPath><clipPath id="clip3"><rect x="844" y="1302" width="410" height="409"/></clipPath></defs><g clip-path="url(#clip0)" transform="translate(-843 -1269)"><g clip-path="url(#clip1)"><g clip-path="url(#clip2)"><g clip-path="url(#clip3)"><path d="M120.274 236.92C118.201 237.438 115.609 238.994 116.127 241.067 116.645 242.623 119.238 243.659 120.793 243.659 125.459 243.659 125.459 236.402 120.274 236.92Z" fill="#FFFFFF" fill-rule="nonzero" fill-opacity="1" transform="matrix(1.00245 0 0 1 845 1302)"/><path d="M114.572 259.212 110.424 259.212 105.759 266.989 105.759 259.212 101.611 259.212 101.611 278.394 105.759 278.394 105.759 272.691 107.314 270.618 110.943 278.394 115.09 278.394 109.388 267.507Z" fill="#FFFFFF" fill-rule="nonzero" fill-opacity="1" transform="matrix(1.00245 0 0 1 845 1302)"/><path d="M123.903 266.47 123.903 266.47 121.311 259.212 117.164 259.212 121.83 270.618 121.83 278.394 125.459 278.394 125.459 270.618 130.643 259.212 126.496 259.212Z" fill="#FFFFFF" fill-rule="nonzero" fill-opacity="1" transform="matrix(1.00245 0 0 1 845 1302)"/><path d="M144.122 261.804C143.604 260.767 143.085 260.249 142.048 259.731 141.011 259.212 139.975 259.212 138.419 259.212 136.864 259.212 135.827 259.212 134.79 259.731 133.753 260.249 133.235 260.767 132.717 261.804 132.198 262.841 132.198 263.878 131.68 264.915 131.68 265.952 131.68 267.507 131.68 269.062 131.68 270.618 131.68 271.654 131.68 273.21 131.68 274.247 132.198 275.283 132.717 276.32 133.235 277.357 133.753 277.875 134.79 278.394 135.827 278.912 136.864 278.912 138.419 278.912 139.975 278.912 141.011 278.912 142.048 278.394 143.085 277.875 143.604 277.357 144.122 276.32 144.64 275.283 144.64 274.247 145.159 273.21 145.159 272.173 145.159 270.618 145.159 269.062 145.159 267.507 145.159 266.47 145.159 264.915 144.64 263.878 144.64 262.323 144.122 261.804ZM141.011 272.173C141.011 273.21 141.011 273.728 140.493 274.247 140.493 274.765 139.975 275.283 139.975 275.283 139.456 275.802 138.938 275.802 138.419 275.802 137.901 275.802 137.382 275.802 136.864 275.283 136.346 275.283 136.346 274.765 135.827 274.247 135.827 273.728 135.827 273.21 135.309 272.173 135.309 271.136 135.309 270.099 135.309 269.062 135.309 268.025 135.309 266.989 135.309 265.952 135.309 264.915 135.309 264.396 135.827 263.878 135.827 263.36 136.346 262.841 136.864 262.841 137.382 262.323 137.901 262.323 138.419 262.323 138.938 262.323 139.456 262.323 139.975 262.841 140.493 262.841 140.493 263.36 140.493 263.878 140.493 264.396 141.011 264.915 141.011 265.952 141.011 266.989 141.011 268.025 141.011 269.062 141.53 270.099 141.011 271.136 141.011 272.173Z" fill="#FFFFFF" fill-rule="nonzero" fill-opacity="1" transform="matrix(1.00245 0 0 1 845 1302)"/><path d="M147.233 262.323 151.38 262.323 151.38 278.394 155.009 278.394 155.009 262.323 159.156 262.323 159.156 259.212 147.233 259.212Z" fill="#FFFFFF" fill-rule="nonzero" fill-opacity="1" transform="matrix(1.00245 0 0 1 845 1302)"/><path d="M172.117 261.804C171.598 260.767 171.08 260.249 170.043 259.731 169.525 259.212 168.488 259.212 166.933 259.212 165.377 259.212 164.341 259.212 163.304 259.731 162.267 260.249 161.748 260.767 161.23 261.804 160.712 262.841 160.712 263.878 160.193 264.915 160.193 265.952 160.193 267.507 160.193 269.062 160.193 270.618 160.193 271.654 160.193 273.21 160.193 274.247 160.712 275.283 161.23 276.32 161.748 277.357 162.267 277.875 163.304 278.394 164.341 278.912 165.377 278.912 166.933 278.912 168.488 278.912 169.525 278.912 170.562 278.394 171.598 277.875 172.117 277.357 172.635 276.32 173.154 275.283 173.154 274.247 173.672 273.21 173.672 272.173 173.672 270.618 173.672 269.062 173.672 267.507 173.672 266.47 173.672 264.915 173.154 263.878 172.635 262.323 172.117 261.804ZM169.525 272.173C169.525 273.21 169.525 273.728 169.006 274.247 169.006 274.765 168.488 275.283 167.97 275.283 167.451 275.802 167.451 275.802 166.414 275.802 165.896 275.802 165.377 275.802 164.859 275.283 164.341 275.283 164.341 274.765 163.822 274.247 163.822 273.728 163.304 273.21 163.304 272.173 163.304 271.136 163.304 270.099 163.304 269.062 163.304 268.025 163.304 266.989 163.304 265.952 163.304 264.915 163.304 264.396 163.822 263.878 163.822 263.36 164.341 262.841 164.859 262.841 165.377 262.323 165.377 262.323 166.414 262.323 166.933 262.323 167.451 262.323 167.97 262.841 168.488 262.841 168.488 263.36 169.006 263.878 169.006 264.396 169.525 264.915 169.525 265.952 169.525 266.989 169.525 268.025 169.525 269.062 169.525 270.099 169.525 271.136 169.525 272.173Z" fill="#FFFFFF" fill-rule="nonzero" fill-opacity="1" transform="matrix(1.00245 0 0 1 845 1302)"/><path d="M244.178 272.691C244.178 273.728 244.178 274.247 243.659 274.765 243.659 275.283 243.141 275.283 242.104 275.283 241.586 275.283 241.067 274.765 240.549 274.765 240.549 274.247 240.031 273.728 240.031 272.691L240.031 272.173 236.402 272.173 236.402 273.21C236.402 273.728 236.402 274.765 236.402 275.283 236.402 275.802 236.92 276.32 236.92 276.839 237.438 277.357 237.957 277.875 238.475 277.875 238.994 277.875 240.031 278.394 241.067 278.394 243.141 278.394 244.178 277.875 245.215 277.357 246.252 276.32 246.77 275.283 246.77 273.21L246.77 259.212 243.141 259.212 243.141 272.691Z" fill="#FFFFFF" fill-rule="nonzero" fill-opacity="1" transform="matrix(1.00245 0 0 1 845 1302)"/><path d="M255.065 259.212 249.881 277.875 254.028 277.875 255.065 273.728 260.249 273.728 261.286 277.875 265.433 277.875 260.249 259.212 255.065 259.212ZM255.583 271.136 257.657 262.841 259.731 271.136 255.583 271.136Z" fill="#FFFFFF" fill-rule="nonzero" fill-opacity="1" transform="matrix(1.00245 0 0 1 845 1302)"/><path d="M278.394 262.841C278.394 262.323 277.875 261.804 277.357 261.286 276.839 260.767 276.32 260.249 275.802 260.249 275.283 259.731 274.247 259.731 273.21 259.731L266.47 259.731 266.47 278.394 270.099 278.394 270.099 271.136 272.173 271.136C273.21 271.136 273.728 271.136 274.765 270.618 275.283 270.618 276.32 270.099 276.839 269.581 277.357 269.062 277.875 268.544 277.875 268.025 278.394 267.507 278.394 266.47 278.394 265.433 278.394 264.396 278.394 263.36 278.394 262.841ZM274.247 266.989C273.728 267.507 273.21 267.507 272.691 267.507L271.136 267.507 271.136 261.804 272.691 261.804C273.728 261.804 274.247 261.804 274.765 262.323 275.283 262.841 275.283 263.36 275.283 264.396 274.765 265.952 274.765 266.989 274.247 266.989Z" fill="#FFFFFF" fill-rule="nonzero" fill-opacity="1" transform="matrix(1.00245 0 0 1 845 1302)"/><path d="M283.578 259.212 278.394 277.875 282.541 277.875 283.578 273.728 288.762 273.728 289.799 277.875 293.947 277.875 288.762 259.212 283.578 259.212ZM284.097 271.136 285.652 262.841 287.207 271.136 284.097 271.136Z" fill="#FFFFFF" fill-rule="nonzero" fill-opacity="1" transform="matrix(1.00245 0 0 1 845 1302)"/><path d="M304.315 272.173 304.315 272.173 299.649 259.212 295.502 259.212 295.502 278.394 298.612 278.394 298.612 264.915 303.278 278.394 307.944 278.394 307.944 259.212 304.315 259.212Z" fill="#FFFFFF" fill-rule="nonzero" fill-opacity="1" transform="matrix(1.00245 0 0 1 845 1302)"/><path d="M186.114 277.357C186.633 277.357 187.67 276.839 187.67 275.802L187.67 264.396 197.52 264.396 197.52 276.32C197.52 276.839 198.038 277.875 199.075 277.875 199.593 277.875 200.63 277.357 200.63 276.32L200.63 264.396 212.036 264.396 212.036 276.32C212.036 276.839 212.554 277.875 213.591 277.875 214.109 277.875 215.146 277.357 215.146 276.32L215.146 264.396 224.996 264.396 224.996 276.32C224.996 276.839 225.515 277.875 226.551 277.875 227.588 277.875 228.107 277.357 228.107 276.32L228.107 263.36C228.107 262.841 227.588 261.804 226.551 261.804L207.37 261.804 207.37 256.102C207.37 255.583 206.851 254.546 205.814 254.546 205.296 254.546 204.259 255.065 204.259 256.102L204.259 261.804 186.114 261.804C185.596 261.804 184.559 262.323 184.559 263.36L184.559 276.32C185.078 276.839 185.596 277.357 186.114 277.357Z" fill="#FFFFFF" fill-rule="nonzero" fill-opacity="1" transform="matrix(1.00245 0 0 1 845 1302)"/><path d="M186.114 298.094 194.409 298.094C194.928 298.094 195.964 297.576 195.964 296.539 195.964 296.02 195.446 295.502 194.409 295.502L187.67 295.502 187.67 292.391 194.409 292.391C194.928 292.391 195.964 291.873 195.964 290.836 195.964 290.318 195.446 289.281 194.409 289.281L187.67 289.281 187.67 286.17 194.409 286.17C194.928 286.17 195.964 285.652 195.964 284.615 195.964 284.097 195.446 283.578 194.409 283.578L187.67 283.578 187.67 281.504C187.67 280.986 187.151 279.949 186.114 279.949 185.596 279.949 184.559 280.468 184.559 281.504L184.559 296.539C185.078 297.576 185.596 298.094 186.114 298.094Z" fill="#FFFFFF" fill-rule="nonzero" fill-opacity="1" transform="matrix(1.00245 0 0 1 845 1302)"/><path d="M225.515 280.468C224.996 280.468 223.959 280.986 223.959 282.023L223.959 284.097 217.738 284.097C217.22 284.097 216.183 284.615 216.183 285.133 216.183 286.17 216.701 286.689 217.738 286.689L224.478 286.689 224.478 289.799 217.738 289.799C217.22 289.799 216.183 290.318 216.183 291.355 216.183 291.873 216.701 292.91 217.738 292.91L224.478 292.91 224.478 295.502 217.738 295.502C217.22 295.502 216.183 296.02 216.183 296.539 216.183 297.057 216.701 298.094 217.738 298.094L225.515 298.094C226.033 298.094 226.551 297.576 226.551 296.539L226.551 281.504C227.07 280.986 226.551 280.468 225.515 280.468Z" fill="#FFFFFF" fill-rule="nonzero" fill-opacity="1" transform="matrix(1.00245 0 0 1 845 1302)"/><path d="M213.072 289.281C213.072 288.762 213.072 288.244 212.554 288.244L208.407 285.133 212.554 282.023C213.072 281.504 213.072 280.986 213.072 279.949 212.554 279.949 211.517 279.949 210.999 280.468L205.814 284.097 200.63 280.468C200.112 279.949 199.075 280.468 198.557 280.986 198.038 281.504 198.557 282.541 199.075 283.06L203.222 286.17 199.075 289.281C198.557 289.799 198.557 289.799 198.557 290.318 198.557 290.836 198.557 291.355 199.075 291.355L203.222 294.465 199.075 297.576C198.557 298.094 198.557 298.612 198.557 299.649 198.557 300.168 199.075 300.168 199.593 300.168 200.112 300.168 200.112 300.168 200.63 300.168L205.814 296.539 210.999 300.168C210.999 300.168 211.517 300.168 211.517 300.168 212.036 300.168 212.554 300.168 212.554 299.649 213.072 299.131 212.554 298.094 212.036 297.576L207.888 294.465 212.554 290.318C213.072 290.318 213.072 289.799 213.072 289.281ZM205.814 291.873 202.186 289.281 205.814 286.689 209.443 289.281 205.814 291.873Z" fill="#FFFFFF" fill-rule="nonzero" fill-opacity="1" transform="matrix(1.00245 0 0 1 845 1302)"/><path d="M225.515 302.241 186.114 302.241C185.596 302.241 184.559 302.76 184.559 303.797L184.559 326.089C184.559 326.607 185.078 327.644 186.114 327.644 186.633 327.644 187.67 327.126 187.67 326.089L187.67 304.834 224.478 304.834 224.478 325.571C224.478 326.089 224.996 327.126 226.033 327.126 227.07 327.126 227.588 326.607 227.588 325.571L227.588 303.278C227.07 302.76 226.033 302.241 225.515 302.241Z" fill="#FFFFFF" fill-rule="nonzero" fill-opacity="1" transform="matrix(1.00245 0 0 1 845 1302)"/><path d="M220.33 307.426C219.812 307.426 219.294 307.944 219.294 308.463L219.294 318.831 207.37 318.831 207.37 315.72 215.146 315.72C216.183 315.72 216.701 315.202 216.701 314.165L216.701 308.463C216.701 307.944 216.183 307.426 215.146 307.426L197.001 307.426C196.483 307.426 195.446 307.944 195.446 308.463L195.446 314.165C195.446 314.684 195.964 315.72 197.001 315.72L204.778 315.72 204.778 318.831 192.854 318.831 192.854 308.463C192.854 307.944 192.335 307.426 191.299 307.426 190.78 307.426 190.262 307.944 190.262 308.463L190.262 320.386C190.262 321.423 190.78 321.942 191.299 321.942L204.259 321.942 204.259 325.052 190.78 325.052C190.262 325.052 189.743 325.571 189.743 326.089 189.743 326.607 190.262 327.644 190.78 327.644L205.814 327.644C206.333 327.644 207.37 327.126 207.37 326.089L207.37 321.423 220.33 321.423C220.849 321.423 221.886 320.905 221.886 319.868L221.886 307.944C221.886 307.944 221.367 307.426 220.33 307.426ZM198.038 313.128 198.038 310.018 213.591 310.018 213.591 313.128 198.038 313.128Z" fill="#FFFFFF" fill-rule="nonzero" fill-opacity="1" transform="matrix(1.00245 0 0 1 845 1302)"/><path d="M204.259 0C91.2427 0 0 91.2427 0 203.741 0 316.239 91.2427 407.482 204.259 407.482 316.757 407.482 408 316.239 408 203.741 408 91.2427 316.757 0 204.259 0ZM344.752 344.752C308.463 381.042 258.694 403.334 203.741 403.334 148.788 403.334 99.0191 381.042 62.7294 344.752 26.4396 308.463 4.1474 258.694 4.1474 203.741 4.1474 148.788 26.4396 99.0191 62.7294 62.7294 99.0191 26.4396 148.788 4.1474 203.741 4.1474 258.694 4.1474 308.463 26.4396 344.752 62.7294 381.042 99.0191 403.334 148.788 403.334 203.741 403.334 259.212 381.042 308.981 344.752 344.752Z" fill="#FFFFFF" fill-rule="nonzero" fill-opacity="1" transform="matrix(1.00245 0 0 1 845 1302)"/><path d="M203.741 10.8869C97.4638 10.8869 10.8869 97.4638 10.8869 203.741 10.8869 310.536 97.4638 397.113 204.259 397.113 311.055 397.113 397.632 310.536 397.632 203.741 397.113 97.4638 310.536 10.8869 203.741 10.8869ZM338.531 338.531C304.315 372.747 256.62 394.521 203.741 394.521 151.38 394.521 103.685 373.266 69.4689 338.531 35.2529 304.315 13.479 256.62 13.479 203.741 13.479 151.38 34.7344 103.685 69.4689 68.9504 103.685 35.2529 151.38 13.479 203.741 13.479 256.102 13.479 303.797 34.7344 338.531 69.4689 373.266 104.203 394.003 151.38 394.003 203.741 394.003 256.62 372.747 304.315 338.531 338.531Z" fill="#FFFFFF" fill-rule="nonzero" fill-opacity="1" transform="matrix(1.00245 0 0 1 845 1302)"/><path d="M55.9898 199.075 45.1029 198.038 40.9555 192.854 57.5451 183.004 58.0635 177.301 38.3634 189.225 26.9581 175.227 26.4396 180.93 40.4371 197.52 25.4028 196.483 24.8844 200.63 55.9898 203.222Z" fill="#FFFFFF" fill-rule="nonzero" fill-opacity="1" transform="matrix(1.00245 0 0 1 845 1302)"/><path d="M61.6925 163.304 63.2478 159.156 51.324 155.527 36.8081 138.938 35.2529 144.122 47.1766 156.564 30.0686 161.23 29.0318 165.896 49.7687 159.675Z" fill="#FFFFFF" fill-rule="nonzero" fill-opacity="1" transform="matrix(1.00245 0 0 1 845 1302)"/><path d="M54.4346 136.346C58.582 138.419 62.2109 139.456 66.3583 138.938 70.5057 137.901 73.6163 135.827 76.2084 131.68 78.8005 127.014 79.3189 122.867 77.2452 118.719 75.69 115.09 73.0978 112.498 68.9504 109.906 65.3215 107.832 61.6925 106.795 58.0635 107.314 53.9161 107.832 50.2872 110.424 47.695 115.09 45.1029 119.756 44.5845 124.422 46.6582 128.569 48.2135 131.68 50.8056 134.272 54.4346 136.346ZM51.324 117.164C52.8793 114.053 54.953 112.498 58.0635 111.98 61.1741 111.461 63.7662 111.98 67.3952 114.053 70.5057 115.609 72.5794 118.201 74.1347 120.793 75.69 123.385 75.69 126.496 73.6163 129.606 71.5426 133.235 69.4689 134.79 66.3583 135.309 63.2478 135.827 60.6557 134.79 57.5451 133.235 53.9161 131.161 51.324 128.569 50.2872 125.977 49.2503 122.348 49.2503 119.756 51.324 117.164Z" fill="#FFFFFF" fill-rule="nonzero" fill-opacity="1" transform="matrix(1.00245 0 0 1 845 1302)"/><path d="M72.5794 88.1321 92.798 106.277 95.9085 103.166 75.69 85.0216 82.4295 77.2452 79.8374 74.6531 62.7294 93.3164 65.8399 95.9085Z" fill="#FFFFFF" fill-rule="nonzero" fill-opacity="1" transform="matrix(1.00245 0 0 1 845 1302)"/><path d="M106.277 87.6137C110.424 88.6506 114.053 87.6137 118.201 85.0216 122.348 81.9111 124.422 78.2821 124.422 73.6163 124.422 69.9873 123.385 65.8399 120.793 62.2109 118.201 58.582 115.609 56.5083 111.98 55.4714 107.832 53.9161 103.685 54.953 99.0191 58.0635 94.8717 61.1741 92.798 64.8031 92.798 69.4689 92.798 73.0978 93.8348 76.7268 96.4269 79.8374 99.0191 83.9848 102.13 86.5769 106.277 87.6137ZM101.611 61.1741C104.203 59.1004 107.314 58.582 109.906 59.1004 113.017 59.6188 115.09 61.6925 117.164 64.8031 119.238 67.3952 120.274 70.5057 120.793 73.6163 120.793 76.7268 119.756 79.3189 116.645 81.3926 113.535 83.4663 110.424 84.5032 107.832 83.4663 105.24 82.4295 102.648 80.8742 100.574 77.7637 97.9822 74.1347 96.9454 71.0241 97.4638 67.9136 97.4638 65.3215 98.5006 63.2478 101.611 61.1741Z" fill="#FFFFFF" fill-rule="nonzero" fill-opacity="1" transform="matrix(1.00245 0 0 1 845 1302)"/><path d="M149.825 61.1741C152.935 64.2846 156.564 64.8031 161.748 63.2478 166.933 61.6925 169.525 59.1004 170.562 54.953 171.08 52.8793 170.562 49.7687 169.525 46.1398L164.341 29.5502 160.193 30.587 165.896 48.7319C166.414 50.8056 166.933 52.8793 166.414 53.9161 165.896 56.5083 163.822 58.582 160.712 59.6188 157.601 60.6557 155.527 60.1372 153.454 58.0635 152.417 57.0267 151.38 55.4714 150.862 52.8793L145.159 34.216 140.493 36.2897 145.677 52.8793C146.714 56.5083 148.269 59.1004 149.825 61.1741Z" fill="#FFFFFF" fill-rule="nonzero" fill-opacity="1" transform="matrix(1.00245 0 0 1 845 1302)"/><path d="M187.67 57.0267 186.633 31.6239 203.741 55.9898 208.407 55.9898 206.333 24.8844 202.704 24.8844 203.741 50.2872 187.151 25.9212 181.967 25.9212 184.041 57.0267Z" fill="#FFFFFF" fill-rule="nonzero" fill-opacity="1" transform="matrix(1.00245 0 0 1 845 1302)"/><path d="M228.107 26.9581 223.959 26.4396 220.33 57.0267 224.478 57.5451Z" fill="#FFFFFF" fill-rule="nonzero" fill-opacity="1" transform="matrix(1.00245 0 0 1 845 1302)"/><path d="M248.325 63.2478 268.025 36.8081 263.878 35.2529 247.807 58.0635 246.77 30.0686 242.104 29.0318 244.178 61.6925Z" fill="#FFFFFF" fill-rule="nonzero" fill-opacity="1" transform="matrix(1.00245 0 0 1 845 1302)"/><path d="M286.17 80.8742 288.244 77.2452 271.654 68.432 276.839 59.1004 291.873 67.3952 293.428 64.2846 278.394 55.9898 283.06 47.695 299.131 56.5083 301.205 53.3977 281.504 42.5108 266.47 69.4689Z" fill="#FFFFFF" fill-rule="nonzero" fill-opacity="1" transform="matrix(1.00245 0 0 1 845 1302)"/><path d="M298.094 89.6874 306.907 79.8374 313.647 86.0585C314.684 87.0953 315.72 88.1321 316.239 89.169 316.757 90.7243 316.239 92.2795 315.202 93.8348L312.091 97.9822C311.573 99.0191 311.055 99.5375 310.536 100.056 310.536 100.574 310.018 100.574 310.018 101.093L313.647 104.722 314.165 104.203C313.647 103.685 314.165 102.648 314.684 102.13 314.684 101.611 315.202 101.093 316.239 100.056L318.831 96.9454C319.868 95.3901 320.386 94.3532 320.905 93.3164 320.905 92.2795 320.905 91.2427 320.386 90.2058 321.942 90.7243 323.497 90.7243 324.534 90.2058 326.089 89.6874 327.126 89.169 328.681 87.6137 331.273 85.0216 331.792 82.4295 330.236 79.3189 329.718 77.7637 328.163 76.2084 326.607 74.6531L316.239 65.3215 295.502 88.1321 298.094 89.6874ZM316.239 69.4689 323.497 76.2084C324.534 77.2452 325.052 78.2821 325.571 78.8005 326.089 80.3558 325.571 81.9111 324.015 83.4663 322.46 85.0216 321.423 85.54 319.868 85.54 318.313 85.54 317.276 84.5032 315.72 83.4663L308.981 77.2452 316.239 69.4689Z" fill="#FFFFFF" fill-rule="nonzero" fill-opacity="1" transform="matrix(1.00245 0 0 1 845 1302)"/><path d="M328.163 119.238C326.089 116.645 325.571 114.053 326.607 111.461 327.126 110.424 328.163 109.388 329.718 107.832L327.644 104.722C325.052 106.795 323.497 108.869 322.978 111.98 322.46 115.09 323.497 117.682 325.571 120.793 327.126 123.385 329.718 125.459 332.31 126.496 334.902 127.532 337.494 127.532 340.605 125.459 342.679 123.903 344.234 121.83 344.234 119.238 344.234 117.682 343.715 116.127 343.197 114.053L341.642 109.906C340.605 107.314 340.086 105.24 340.086 104.203 340.086 102.648 340.605 101.611 341.642 100.574 342.679 99.5375 344.234 99.5375 345.789 100.056 347.344 100.574 348.381 101.611 349.936 103.166 351.492 105.759 352.01 107.832 351.492 109.906 350.973 110.943 350.455 111.98 348.9 113.017L350.973 116.127C354.084 114.053 355.121 111.98 355.121 108.869 355.121 106.277 354.084 103.685 352.529 101.093 350.455 97.9822 348.381 96.4269 345.789 95.9085 343.197 95.3901 341.123 95.9085 338.531 97.4638 336.457 99.0191 335.421 101.093 335.421 103.166 335.421 104.722 335.939 106.277 336.976 108.869L338.531 113.017C339.568 115.09 339.568 116.645 339.568 118.201 339.568 119.238 339.05 120.793 337.494 121.311 335.939 122.348 333.865 122.348 331.792 120.793 330.236 121.311 329.199 120.274 328.163 119.238Z" fill="#FFFFFF" fill-rule="nonzero" fill-opacity="1" transform="matrix(1.00245 0 0 1 845 1302)"/><path d="M339.568 144.64 367.563 131.68 366.008 127.532 337.494 140.493Z" fill="#FFFFFF" fill-rule="nonzero" fill-opacity="1" transform="matrix(1.00245 0 0 1 845 1302)"/><path d="M345.789 162.267 346.826 166.414 373.266 159.156 375.858 169.006 379.487 167.97 372.747 143.604 369.118 144.64 372.229 155.009Z" fill="#FFFFFF" fill-rule="nonzero" fill-opacity="1" transform="matrix(1.00245 0 0 1 845 1302)"/><path d="M351.492 191.817 351.492 195.964 363.934 194.928 383.634 205.296 383.116 200.63 367.563 192.854 382.079 183.004 381.56 177.82 363.934 190.78Z" fill="#FFFFFF" fill-rule="nonzero" fill-opacity="1" transform="matrix(1.00245 0 0 1 845 1302)"/><path d="M61.1741 280.468 54.4346 266.989 63.2478 262.841 70.5057 278.394 73.6163 276.839 64.8031 257.657 36.8081 270.618 38.3634 274.247 51.324 268.544 57.5451 282.023Z" fill="#FFFFFF" fill-rule="nonzero" fill-opacity="1" transform="matrix(1.00245 0 0 1 845 1302)"/><path d="M86.5769 293.947C83.4663 289.799 79.3189 287.726 74.6531 288.244 71.0241 288.244 67.3952 289.799 64.2846 292.391 60.6557 294.983 58.582 298.612 57.5451 302.241 56.5083 306.389 57.5451 310.536 60.6557 314.165 63.7662 318.313 67.3952 320.386 72.061 320.386 75.69 320.386 79.8374 318.831 83.4663 316.239 87.0953 313.647 89.169 310.536 89.6874 307.426 91.2427 302.76 90.2058 298.612 86.5769 293.947ZM86.0585 304.834C85.54 307.944 83.9848 310.018 80.8742 312.61 78.2821 314.684 75.1715 315.72 72.061 316.239 68.9504 316.757 66.3583 315.202 63.7662 312.091 61.1741 308.981 60.6557 305.87 61.1741 303.278 62.2109 300.686 63.7662 298.094 66.3583 296.02 69.9873 293.428 73.0978 292.391 75.69 292.391 78.8005 292.91 80.8742 293.947 82.9479 296.539 86.0585 299.131 86.5769 301.723 86.0585 304.834Z" fill="#FFFFFF" fill-rule="nonzero" fill-opacity="1" transform="matrix(1.00245 0 0 1 845 1302)"/><path d="M117.164 325.052 105.24 340.086C103.685 341.642 102.648 343.197 101.093 343.715 98.5006 344.752 95.9085 344.234 93.3164 342.16 91.2427 340.086 90.2058 338.013 90.2058 335.421 90.7243 333.865 91.2427 331.792 92.798 330.236L104.722 315.202 101.611 312.61 90.7243 326.089C88.1321 329.199 87.0953 331.792 86.5769 333.865 85.54 338.013 87.6137 341.642 91.2427 344.752 95.3901 347.863 99.0191 348.9 103.166 347.344 105.24 346.308 107.314 344.234 109.906 341.642L120.793 328.163 117.164 325.052Z" fill="#FFFFFF" fill-rule="nonzero" fill-opacity="1" transform="matrix(1.00245 0 0 1 845 1302)"/><path d="M136.864 364.452 133.753 335.421 129.088 333.347 115.609 361.342 119.238 362.897 130.125 340.086 133.753 369.637 137.901 371.71 150.862 343.715 147.233 341.642Z" fill="#FFFFFF" fill-rule="nonzero" fill-opacity="1" transform="matrix(1.00245 0 0 1 845 1302)"/><path d="M173.154 349.418 160.712 346.826 154.49 376.895 166.414 379.487C171.598 380.524 175.746 378.968 178.856 374.821 180.412 372.229 181.967 369.637 182.485 366.526 183.522 362.379 183.004 358.75 181.449 355.639 179.893 352.529 177.301 350.455 173.154 349.418ZM178.338 366.526C178.338 367.563 177.82 368.6 177.301 369.637 176.264 371.71 175.746 372.747 174.709 373.784 173.154 375.339 171.598 375.858 170.043 375.858 169.006 375.858 167.97 375.858 166.414 375.339L159.156 373.784 164.341 350.455 171.598 352.01C174.709 352.529 176.783 354.084 177.82 356.676 178.856 359.787 178.856 362.897 178.338 366.526Z" fill="#FFFFFF" fill-rule="nonzero" fill-opacity="1" transform="matrix(1.00245 0 0 1 845 1302)"/><path d="M200.112 380.005 199.593 369.637 216.701 369.637 216.701 366.008 199.593 366.008 199.593 356.676 217.738 356.158 217.738 352.529 195.446 353.047 195.964 384.152 218.775 383.634 218.775 380.005Z" fill="#FFFFFF" fill-rule="nonzero" fill-opacity="1" transform="matrix(1.00245 0 0 1 845 1302)"/><path d="M250.399 350.455C247.288 347.863 243.659 347.344 239.512 348.381L227.588 351.492 234.846 381.56 246.77 378.45C251.954 377.413 255.065 374.302 256.102 369.118 256.62 366.008 256.62 363.415 255.583 359.787 254.546 355.639 252.991 352.529 250.399 350.455ZM251.436 370.155C250.917 371.71 249.881 373.266 248.325 374.302 247.807 374.821 246.252 375.339 245.215 375.339L237.957 376.895 232.254 353.565 239.512 352.01C242.623 351.492 245.215 351.492 247.288 353.565 249.362 355.121 250.399 358.231 251.436 361.86 251.954 362.897 251.954 363.934 251.954 364.971 252.473 367.044 251.954 368.6 251.436 370.155Z" fill="#FFFFFF" fill-rule="nonzero" fill-opacity="1" transform="matrix(1.00245 0 0 1 845 1302)"/><path d="M285.652 329.199C286.689 331.273 286.689 333.347 286.17 334.384 285.652 335.421 284.097 336.976 282.023 338.531L283.578 341.123 289.799 336.976 301.205 355.121 304.834 353.047 288.244 327.644 285.652 329.199Z" fill="#FFFFFF" fill-rule="nonzero" fill-opacity="1" transform="matrix(1.00245 0 0 1 845 1302)"/><path d="M325.052 317.276C324.015 317.276 322.978 317.276 321.423 317.794 321.942 316.757 321.942 315.72 321.942 314.684 321.942 313.128 320.905 311.573 319.868 310.536 318.313 308.981 316.757 308.463 314.684 308.463 312.61 308.463 310.018 309.499 307.944 311.573 305.87 313.647 304.834 315.72 304.834 318.313 304.834 320.905 305.352 322.46 306.907 324.015 307.944 325.052 309.499 326.089 311.055 326.089 312.091 326.089 312.61 326.089 313.647 325.571 313.128 327.126 312.61 328.681 313.128 330.236 313.647 331.792 314.165 333.347 315.202 334.384 317.276 336.457 319.868 337.494 322.46 337.494 325.052 337.494 327.126 335.939 329.718 333.865 332.31 331.792 333.347 329.199 333.347 326.607 333.347 324.015 332.31 321.942 330.755 319.868 328.681 318.313 327.126 317.276 325.052 317.276ZM313.128 322.46C312.091 322.46 310.536 321.942 309.499 320.905 308.463 319.868 307.944 318.831 307.944 317.794 307.944 316.757 308.463 315.202 310.018 314.165 311.573 312.61 312.61 312.091 314.165 312.091 315.72 312.091 316.757 312.61 317.276 313.647 318.313 314.684 318.831 315.72 318.831 317.276 318.831 318.313 318.313 319.868 317.276 320.905 315.72 321.423 314.684 322.46 313.128 322.46ZM327.126 331.273C325.571 332.828 324.015 333.347 322.46 333.347 320.905 333.347 319.349 332.828 318.313 331.273 316.757 330.236 316.239 328.681 316.757 327.126 316.757 325.571 317.794 324.015 318.831 322.978 320.386 321.942 321.423 320.905 322.978 320.905 324.534 320.905 326.089 321.423 327.644 322.978 328.681 324.534 329.718 325.571 329.199 327.126 329.199 328.681 328.681 330.236 327.126 331.273Z" fill="#FFFFFF" fill-rule="nonzero" fill-opacity="1" transform="matrix(1.00245 0 0 1 845 1302)"/><path d="M344.234 289.281C341.642 287.207 339.05 286.17 336.457 285.652 332.31 284.615 328.681 286.17 326.607 289.799 324.534 292.391 324.015 294.983 325.052 297.576 325.571 300.168 327.126 302.241 329.718 303.797 332.31 305.352 334.384 305.87 336.976 305.87 339.568 305.352 341.642 304.315 343.197 301.723 344.234 300.686 344.752 299.131 344.752 298.094 345.271 296.539 344.752 295.502 344.234 293.947 347.863 297.057 349.936 299.649 350.455 301.723 350.973 303.797 350.455 305.352 349.418 306.907 348.9 307.944 348.381 308.463 347.344 308.463 345.789 309.499 344.234 308.981 342.16 307.944L339.568 311.055C341.642 312.61 343.197 312.61 345.789 312.61 347.863 312.091 349.936 311.055 351.492 308.463 354.084 304.834 354.084 301.205 350.973 296.539 349.418 293.947 346.826 291.355 344.234 289.281ZM340.086 299.649C339.05 301.205 337.494 302.241 335.939 302.241 334.384 302.241 332.828 301.723 331.273 300.686 329.718 299.649 328.681 298.094 328.163 296.539 327.644 294.983 328.163 293.428 329.199 291.873 330.236 290.318 331.273 289.799 332.828 289.281 334.384 288.762 335.939 289.281 338.013 290.836 340.086 292.391 341.123 293.947 341.123 295.502 341.123 297.057 341.123 298.094 340.086 299.649Z" fill="#FFFFFF" fill-rule="nonzero" fill-opacity="1" transform="matrix(1.00245 0 0 1 845 1302)"/><path d="M356.676 269.062C354.602 266.989 353.047 264.396 351.492 262.323 349.936 259.731 348.9 258.175 348.381 256.62L345.271 255.065 336.976 274.247 340.605 275.802 347.344 260.767C348.9 263.878 350.455 266.47 353.047 270.099 357.194 275.283 361.342 279.431 366.008 283.06L367.563 279.431C364.971 277.357 362.897 276.32 361.86 275.283 360.305 272.691 358.75 271.136 356.676 269.062Z" fill="#FFFFFF" fill-rule="nonzero" fill-opacity="1" transform="matrix(1.00245 0 0 1 845 1302)"/><path d="M339.568 186.114C339.05 183.004 338.531 179.893 338.013 176.783 338.013 176.783 338.013 176.264 338.013 176.264 336.976 172.117 335.939 167.97 334.902 163.822 317.794 107.832 265.433 66.8767 203.741 66.8767 128.051 66.8767 66.3583 128.051 66.3583 203.741 66.3583 205.814 66.3583 207.888 66.8767 209.962 69.9873 282.541 130.125 340.605 203.741 340.605 279.431 340.605 340.605 279.431 340.605 203.741 340.605 200.63 340.605 198.038 340.086 194.928 340.086 193.891 340.086 192.854 340.086 191.299 340.086 189.743 340.086 188.188 339.568 186.114ZM336.457 191.817C338.531 192.335 338.013 194.409 336.976 195.446 335.939 195.964 333.865 195.446 333.865 193.891 333.865 191.817 334.902 191.299 336.457 191.817ZM333.865 184.041C337.494 189.225 328.681 185.596 327.644 183.522 327.126 180.93 331.792 180.93 333.865 184.041ZM333.347 200.63C333.865 202.186 330.755 203.222 329.718 200.63 328.681 198.038 331.273 195.964 333.347 200.63ZM328.163 194.928C325.571 196.483 322.978 194.409 324.015 192.335 324.534 190.262 326.607 187.67 328.163 189.225 330.755 191.817 330.236 192.854 328.163 194.928ZM331.273 177.82C328.681 177.82 327.126 176.264 326.089 172.635 325.571 169.006 329.199 169.525 331.273 172.117 333.347 174.191 333.865 177.82 331.273 177.82ZM325.052 147.751C327.126 148.269 326.089 150.343 325.571 151.38 324.534 151.898 322.46 151.38 322.46 149.825 322.46 147.751 323.497 147.233 325.052 147.751ZM325.052 159.675C325.571 156.564 326.607 155.527 328.163 158.119 329.718 161.23 331.792 161.748 330.236 164.341 328.681 166.933 326.089 166.933 323.497 165.377 320.905 164.341 324.534 162.785 325.052 159.675ZM321.423 169.525C321.942 171.08 321.942 172.635 321.423 174.709 320.905 176.264 321.423 177.82 322.46 179.893 323.497 181.967 321.942 183.004 320.905 181.967 320.386 181.449 318.831 180.412 318.313 180.412 317.794 179.893 317.276 178.338 317.794 176.783 318.313 175.227 317.794 173.672 317.276 172.117 316.757 170.562 317.794 168.488 319.349 168.488 319.868 167.451 320.905 167.97 321.423 169.525ZM321.942 188.188C321.423 189.743 320.386 190.262 318.313 189.743 315.72 189.225 315.202 185.078 317.276 184.041 319.349 183.522 321.942 186.633 321.942 188.188ZM319.868 157.601C318.831 160.193 315.72 158.638 313.647 158.638 312.091 158.638 311.573 156.046 312.61 153.972 313.647 151.898 315.202 151.38 316.757 151.898 319.349 152.935 320.905 155.009 319.868 157.601ZM307.426 179.375C304.315 180.412 303.797 178.856 303.797 173.672 303.797 168.488 308.981 170.562 310.018 172.635 312.091 176.783 310.536 178.338 307.426 179.375ZM309.499 185.596C308.463 186.114 305.352 186.633 305.352 184.559 305.352 182.485 307.426 180.93 309.499 181.967 312.61 183.522 310.536 185.078 309.499 185.596ZM240.549 186.633C237.438 186.633 233.291 184.559 233.291 184.559 230.699 182.485 229.662 179.375 229.662 175.746 229.662 172.117 229.662 169.006 229.662 166.414 229.662 166.414 229.662 166.414 229.662 166.414 230.18 165.377 231.217 164.341 233.291 163.822 233.291 163.822 236.402 162.785 236.92 166.414 236.92 167.451 237.438 168.488 237.957 169.525 236.402 171.08 235.365 173.672 236.402 175.746 237.438 177.301 238.994 177.301 240.549 174.709 241.067 173.672 241.586 172.635 241.586 171.598 241.586 171.598 241.586 171.598 242.104 171.598 245.733 171.08 246.77 170.043 248.325 172.635 249.881 175.746 251.436 175.746 253.51 175.227 254.546 175.227 255.065 175.227 255.583 175.227 255.065 176.264 254.546 176.783 254.546 177.82 252.473 183.004 251.954 183.004 249.362 185.078 247.288 186.114 242.623 186.633 240.549 186.633ZM248.844 191.817C249.362 192.854 247.288 193.372 246.252 193.372 245.215 193.891 245.215 194.928 242.623 194.928 240.549 194.928 240.549 192.335 241.067 191.299 241.586 190.262 242.623 189.743 244.696 190.262 244.696 190.262 248.325 190.78 248.844 191.817ZM189.743 184.559C190.78 185.596 190.262 187.151 189.743 187.67 189.225 188.188 188.188 189.743 188.706 190.262 189.225 190.78 189.225 191.817 188.706 192.854 188.188 193.891 188.188 194.928 189.225 195.446 190.262 195.964 190.78 199.075 189.225 199.593 187.67 200.112 187.151 202.186 187.67 203.222 188.706 204.259 188.706 205.296 187.67 206.333 186.633 206.851 187.151 207.888 187.151 208.925 187.67 209.962 187.67 213.591 185.596 213.072 183.522 212.554 184.041 210.48 182.485 208.925 180.93 207.888 179.375 207.888 178.338 206.333 177.301 204.778 176.783 202.704 178.856 200.63 180.93 198.557 183.004 199.593 183.004 197.52 183.004 194.928 181.449 193.891 180.412 194.928 178.856 195.446 176.264 192.335 174.191 194.928 173.672 195.446 168.488 198.557 166.933 192.854 165.377 187.151 170.043 184.041 171.598 185.596 171.598 185.596 173.672 187.151 175.227 186.633 176.783 186.114 177.82 185.596 179.893 187.151 181.967 188.706 184.559 187.151 184.559 185.078 184.559 183.004 186.114 181.967 185.596 179.375 185.596 176.783 187.151 176.264 188.706 176.783 190.262 177.301 190.78 179.375 189.743 181.449 189.743 182.485 189.225 183.522 189.743 184.559ZM157.083 185.596C158.119 183.004 160.712 182.485 161.748 183.004 162.785 183.522 162.785 185.078 161.23 186.633 159.675 188.706 161.23 191.299 159.156 191.817 157.083 192.335 156.046 188.188 157.083 185.596ZM156.564 174.191C157.601 173.154 158.638 174.191 159.156 174.709 161.23 176.264 158.638 177.82 157.601 177.301 156.564 176.264 155.527 174.709 156.564 174.191ZM160.193 170.562C158.119 170.043 152.417 171.08 152.417 171.08 152.417 171.08 150.343 172.117 151.898 174.709 152.935 175.746 153.454 177.301 153.454 178.338 152.417 178.338 149.825 176.783 149.306 176.264 148.269 175.746 147.233 175.227 145.677 174.709 145.677 174.191 146.196 173.672 146.196 173.154 146.196 170.562 145.159 166.414 147.233 164.341 149.306 162.267 151.898 161.23 152.935 162.785 152.935 162.785 153.454 163.304 153.454 163.822 152.935 163.822 152.935 163.822 152.935 164.341 150.343 165.896 148.788 169.525 151.38 170.043 152.935 170.562 155.527 169.006 156.564 167.451 157.601 167.97 158.638 168.488 160.712 168.488 165.377 168.488 167.451 166.414 168.488 164.859 169.525 163.304 172.635 162.785 173.672 164.341 173.672 164.341 174.191 164.859 174.191 164.859 174.191 164.859 174.709 165.896 174.709 167.97 174.709 169.525 174.709 170.562 176.264 171.598 177.301 172.117 179.375 172.117 180.93 171.08 180.93 171.08 183.004 169.006 183.522 171.08 183.522 172.635 183.522 174.191 183.522 175.227 183.522 175.746 183.522 176.264 183.522 176.783 183.522 176.783 183.522 176.783 183.522 176.783 183.004 179.375 182.485 180.93 179.375 180.93 176.783 181.449 172.635 179.375 168.488 178.338 168.488 178.338 165.896 177.82 164.341 175.746 162.267 172.635 161.748 170.562 160.193 170.562ZM151.38 187.151C150.343 187.151 147.233 186.633 147.233 185.078 147.233 183.522 148.269 183.004 150.862 183.522 155.009 185.078 153.454 187.151 151.38 187.151ZM117.682 177.301C116.645 178.856 116.127 180.412 115.609 181.449 115.09 182.485 113.017 181.967 113.017 180.93 112.498 180.412 112.498 179.893 110.943 179.893 109.388 179.893 108.869 179.893 108.351 178.856 107.832 177.82 107.832 176.783 108.869 175.746 109.388 174.709 110.943 174.709 112.498 174.709 113.535 174.709 115.09 174.191 116.127 173.154 117.164 172.117 118.719 172.117 119.756 173.154 119.756 174.709 118.719 176.264 117.682 177.301ZM117.682 190.262C116.645 191.299 114.572 191.817 113.017 190.262 111.461 188.706 113.535 186.114 115.09 185.596 116.645 185.078 117.682 185.078 118.719 186.114 119.756 187.67 118.719 189.225 117.682 190.262ZM94.3532 164.859C94.8717 165.377 93.8348 166.414 93.3164 166.414 92.798 166.933 92.2795 166.933 91.7611 167.97 91.2427 169.006 90.7243 169.006 89.6874 169.006 88.6506 169.006 88.6506 168.488 88.1321 167.451 87.0953 166.414 87.6137 165.377 88.1321 164.341 88.6506 163.304 89.6874 163.304 90.7243 163.304 91.2427 163.304 93.8348 164.341 94.3532 164.859ZM94.3532 158.638C95.3901 159.675 94.3532 161.748 92.798 161.23 90.7243 160.712 90.7243 159.156 90.2058 158.119 89.6874 157.083 91.2427 155.527 94.3532 158.638ZM90.2058 173.672C91.7611 173.672 92.2795 173.154 93.8348 171.598 95.3901 170.562 96.4269 171.598 95.9085 172.635 95.3901 173.154 95.3901 174.709 94.8717 175.227 94.8717 175.746 93.8348 176.783 92.2795 176.264 90.7243 176.264 90.2058 176.783 88.6506 177.82 87.6137 178.856 85.54 177.82 85.54 177.301 85.0216 176.264 85.0216 175.746 86.0585 174.709 87.0953 174.191 88.6506 173.672 90.2058 173.672ZM91.7611 183.004C91.2427 184.559 89.6874 185.078 88.6506 185.078 87.6137 185.078 86.5769 184.041 87.6137 182.485 88.1321 181.449 89.169 181.449 90.7243 181.449 90.7243 181.449 92.2795 181.449 91.7611 183.004ZM86.0585 198.038C86.5769 197.001 87.6137 196.483 88.6506 196.483 90.2058 195.964 90.7243 196.483 91.2427 197.001 91.7611 197.52 91.7611 199.075 90.7243 200.112 89.6874 201.149 87.6137 201.149 87.0953 201.149 85.54 200.112 85.54 198.557 86.0585 198.038ZM90.2058 192.335C89.169 192.335 87.6137 192.335 87.0953 191.299 86.5769 190.262 87.0953 189.225 88.1321 189.225 89.169 188.706 90.2058 188.706 91.2427 188.188 92.2795 187.67 92.798 187.151 93.3164 186.633 94.3532 185.596 95.3901 185.596 95.9085 186.114 96.4269 186.114 96.9454 187.151 96.9454 188.188 96.9454 189.225 96.4269 189.743 94.8717 191.299 93.3164 191.817 91.2427 191.817 90.2058 192.335ZM95.3901 194.928C95.9085 194.409 96.4269 193.891 97.9822 193.891 99.5375 193.891 100.056 193.372 100.574 193.372 101.093 192.854 102.13 192.854 102.13 193.891 102.13 195.446 100.574 196.483 99.5375 197.001 98.5006 197.52 96.9454 198.557 95.3901 197.52 94.3532 196.483 94.8717 195.446 95.3901 194.928ZM100.056 182.485C97.9822 183.004 96.9454 181.967 95.9085 180.93 94.8717 179.893 95.3901 178.338 96.4269 177.82 97.4638 177.301 97.9822 176.264 98.5006 175.746 99.0191 175.227 100.574 174.709 102.13 175.227 103.166 175.746 103.166 177.301 103.166 178.856 103.685 180.412 102.13 181.967 100.056 182.485ZM97.9822 164.341C97.9822 162.785 98.5006 162.267 100.056 162.267 100.056 162.267 104.203 163.304 105.24 164.341 106.277 165.377 106.277 166.933 105.24 168.488 104.203 170.043 102.648 169.525 100.574 169.525 98.5006 169.525 99.0191 167.97 99.0191 166.933 99.5375 165.896 98.5006 165.896 97.9822 164.341ZM105.759 158.119C105.24 159.675 103.166 158.638 102.13 158.638 101.093 158.638 101.093 157.083 101.611 156.046 102.13 155.009 103.166 154.49 104.203 155.009 105.24 155.009 106.277 156.564 105.759 158.119ZM102.648 138.938C100.574 139.456 99.5375 138.419 99.5375 136.346 99.5375 134.79 100.574 133.235 102.648 134.272 105.759 135.309 104.722 138.419 102.648 138.938ZM100.574 147.233C100.574 148.269 101.093 148.269 100.574 149.825 100.574 151.38 99.0191 150.343 97.4638 149.825 95.9085 149.306 94.8717 146.714 95.3901 145.159 95.9085 143.604 96.9454 144.122 97.9822 144.122 100.056 144.64 100.574 146.196 100.574 147.233ZM102.648 187.151C103.166 185.078 104.722 184.041 106.277 183.522 107.832 183.004 108.869 184.041 108.869 185.078 108.869 186.114 107.832 189.225 105.24 190.262 103.166 190.78 102.13 189.225 102.648 187.151ZM109.906 153.972C109.388 152.935 110.943 151.38 112.498 153.454 114.053 155.527 115.09 157.601 116.645 158.638 118.201 160.193 117.164 162.785 115.609 163.304 114.053 163.304 111.98 163.304 111.461 161.748 110.943 160.712 110.424 160.193 109.906 159.156 109.388 158.638 109.388 158.119 109.388 156.564 109.388 155.527 109.906 155.009 109.906 153.972ZM117.682 144.64C117.682 144.64 119.756 145.159 121.83 146.196 123.385 147.233 122.867 148.788 121.311 150.343 119.756 151.898 119.756 153.454 118.719 153.972 117.682 154.49 116.645 152.417 117.164 151.38 117.164 150.343 117.164 149.306 116.127 147.233 115.09 145.677 116.645 144.122 117.682 144.64ZM109.388 169.006C110.424 169.006 111.98 167.97 113.017 167.451 114.053 166.933 115.09 167.451 115.609 168.488 116.127 169.525 115.09 170.043 113.535 170.043 112.498 170.043 111.98 170.562 111.461 171.598 110.424 172.635 108.869 172.635 108.351 171.598 107.832 171.08 107.832 169.525 109.388 169.006ZM120.274 166.414C122.348 165.377 122.867 164.341 122.867 163.304 122.867 162.267 123.385 160.712 125.459 161.23 128.051 162.267 125.459 166.414 125.459 166.414 124.94 167.451 125.459 169.525 123.903 170.043 122.348 170.043 121.311 170.043 120.274 169.525 118.201 168.488 118.201 167.451 120.274 166.414ZM129.606 157.083C128.569 158.119 126.496 157.083 126.496 157.083 124.94 156.564 123.903 156.046 123.903 155.009 123.903 153.972 124.422 153.454 125.459 152.935 127.014 152.417 127.532 151.38 128.051 152.935 128.569 154.49 130.643 156.046 129.606 157.083ZM131.68 163.304C132.717 164.341 132.198 167.451 130.643 167.451 128.569 167.451 128.569 165.377 129.606 163.822 129.606 162.785 130.643 162.785 131.68 163.304ZM122.867 178.856C123.903 178.338 125.459 177.82 126.496 178.338 127.532 178.856 128.569 179.375 128.051 179.893 128.051 180.412 125.459 180.412 124.94 180.93 124.422 181.449 123.903 181.967 122.867 181.967 121.83 181.967 120.793 181.449 121.311 180.93 121.83 180.412 121.83 179.375 122.867 178.856ZM126.496 171.598C127.014 171.08 128.051 171.08 129.088 170.562 130.125 170.562 133.235 172.117 133.235 173.154 133.235 174.191 132.717 174.709 129.088 174.709 125.977 174.709 125.977 172.635 126.496 171.598ZM132.198 149.825C132.198 148.788 133.753 148.269 135.309 148.788 135.309 148.788 138.938 149.306 138.938 150.343 139.456 151.38 137.382 151.38 136.864 151.898 135.827 152.417 135.827 153.454 133.753 153.454 131.68 152.935 131.68 150.343 132.198 149.825ZM132.717 127.532C133.235 125.977 134.272 125.977 135.309 127.014 136.346 127.532 136.864 131.68 136.346 133.753 135.827 135.309 134.272 136.346 132.198 134.79 130.643 133.235 132.198 129.606 132.717 127.532ZM135.827 164.859C137.382 163.822 138.938 164.341 138.938 165.377 138.938 166.414 138.938 166.933 138.938 166.933 138.938 168.488 138.938 169.525 137.382 170.562 135.827 171.08 134.79 171.08 134.272 170.562 133.753 170.043 134.272 169.006 134.272 167.97 134.272 166.933 134.272 165.896 135.827 164.859ZM136.346 176.264C137.901 175.227 138.938 173.672 139.456 172.635 139.456 171.598 141.011 171.08 141.53 172.117 142.048 173.154 141.53 175.746 141.011 176.783 139.975 178.338 138.938 179.375 137.382 179.375 135.827 179.375 134.79 179.893 133.753 178.856 133.235 178.338 134.79 177.301 136.346 176.264ZM139.456 159.675C137.901 160.193 136.346 159.156 135.827 158.119 135.309 157.083 135.827 156.564 136.346 155.527 136.864 154.49 137.382 154.49 138.938 154.49 138.938 154.49 141.011 155.527 142.567 155.527 143.604 156.046 143.604 157.083 142.048 157.083 140.493 158.119 140.493 159.156 139.456 159.675ZM137.901 144.122C137.901 141.011 139.456 138.938 142.048 139.456 146.196 140.493 145.677 142.567 143.604 144.64 142.048 146.714 137.901 147.233 137.901 144.122ZM143.604 123.385C145.677 123.903 145.159 126.496 143.604 128.569 141.53 130.643 140.493 128.051 141.011 125.977 141.011 123.903 142.048 123.385 143.604 123.385ZM144.122 113.017C146.196 110.424 150.343 114.053 152.417 116.127 153.972 118.201 151.898 120.274 146.714 120.274 141.53 120.274 142.567 115.609 144.122 113.017ZM149.306 130.643C151.898 130.643 150.862 133.753 150.343 136.346 148.269 145.677 146.196 136.864 146.196 136.864 142.048 133.235 146.714 130.125 149.306 130.643ZM147.233 156.046C147.751 154.49 148.788 154.49 149.825 155.009 151.898 155.527 151.898 157.601 150.343 158.638 148.269 160.193 146.196 157.601 147.233 156.046ZM163.304 124.422C162.267 126.496 160.193 127.532 158.119 125.459 156.046 123.903 158.119 121.311 158.638 119.756 159.156 118.201 161.23 118.719 162.785 119.756 163.822 121.83 164.341 122.867 163.304 124.422ZM163.822 149.306C163.822 152.417 161.23 152.417 159.675 151.38 158.119 149.825 159.156 145.159 159.156 143.085 159.156 141.011 160.712 141.011 162.267 142.048 164.341 143.604 164.341 146.714 163.822 149.306ZM160.712 130.643C162.785 131.161 162.785 133.235 161.748 134.272 160.712 135.309 159.156 135.827 157.601 134.272 156.046 132.198 158.638 130.125 160.712 130.643ZM159.675 158.638C161.748 157.601 163.304 159.675 163.304 161.748 163.304 163.822 161.748 164.341 160.193 164.859 159.156 165.377 156.564 164.341 156.564 162.785 156.564 160.712 158.119 159.675 159.675 158.638ZM169.006 133.753C166.414 134.272 166.414 129.606 167.451 126.496 168.488 123.385 171.08 123.385 172.117 125.977 174.709 130.125 171.598 133.235 169.006 133.753ZM168.488 150.862C166.933 149.825 167.97 146.714 169.006 146.714 170.043 146.196 171.08 146.714 171.598 148.269 172.117 150.343 170.043 151.898 168.488 150.862ZM196.483 127.014C199.593 131.68 194.409 133.753 191.299 133.753 188.706 133.753 191.299 129.606 191.817 127.532 192.335 124.422 194.928 124.422 196.483 127.014ZM193.891 114.053C195.964 112.498 197.52 115.609 198.038 117.682 199.075 120.274 199.075 120.793 195.446 120.793 192.335 120.793 192.854 119.756 192.335 118.201 192.854 116.127 191.817 115.609 193.891 114.053ZM190.78 135.827C191.817 135.827 192.854 137.382 192.335 138.419 191.817 139.975 190.78 139.975 189.225 139.975 187.67 139.975 187.151 137.901 188.188 136.864 188.706 135.827 189.743 135.827 190.78 135.827ZM183.004 124.422C179.375 124.94 183.522 118.201 184.559 116.127 186.114 114.053 187.67 115.09 188.188 117.682 189.743 123.903 186.633 124.422 183.004 124.422ZM186.633 133.753C185.596 135.827 183.004 135.827 180.412 132.717 177.82 129.606 184.041 127.532 186.114 128.051 188.188 128.569 187.67 130.643 186.633 133.753ZM185.078 146.714C183.004 147.751 181.449 145.677 181.449 144.122 181.449 142.567 182.485 141.011 185.078 141.53 188.188 143.085 187.151 146.196 185.078 146.714ZM178.856 155.527C181.449 156.564 180.412 159.156 179.375 160.193 178.338 161.23 175.746 160.193 175.746 158.119 175.746 156.046 176.783 155.009 178.856 155.527ZM176.264 143.604C177.301 143.085 178.338 143.604 178.856 145.159 179.375 147.233 177.301 148.788 175.746 147.751 174.709 147.233 175.227 144.122 176.264 143.604ZM178.856 138.419C177.82 138.419 176.264 137.901 176.783 136.864 176.783 135.827 177.301 135.309 178.856 135.309 180.412 135.309 180.93 136.346 180.93 137.382 180.93 138.419 179.893 138.419 178.856 138.419ZM178.856 110.943C174.191 109.906 174.709 107.832 176.264 105.24 177.82 102.648 180.412 101.611 181.967 103.166 187.151 107.832 183.522 111.98 178.856 110.943ZM177.301 114.053C178.856 114.053 179.893 115.09 180.412 116.645 180.93 118.201 179.893 119.756 178.338 120.274 176.783 120.793 175.227 120.274 174.191 118.719 173.154 117.164 174.191 115.609 175.227 114.572 174.709 115.09 175.746 114.053 177.301 114.053ZM190.262 171.598C189.225 172.635 188.188 171.08 188.188 170.043 188.188 169.006 188.706 167.451 189.743 167.97 191.817 168.488 191.299 170.562 190.262 171.598ZM190.262 158.119C189.743 156.564 190.262 153.972 191.817 155.009 193.891 156.564 193.891 159.675 192.854 160.193 191.817 161.23 190.78 159.156 190.262 158.119ZM192.854 150.862C189.743 151.38 189.743 148.788 190.262 146.714 190.78 144.64 191.817 143.604 193.372 144.122 193.891 144.122 194.409 144.64 195.964 145.677 197.52 146.714 195.964 150.343 192.854 150.862ZM197.52 136.864C199.075 134.79 201.149 134.79 202.186 136.346 203.741 139.975 200.112 142.567 197.001 142.048 193.891 141.53 196.483 138.938 197.52 136.864ZM221.886 121.311C222.404 124.422 221.886 125.977 220.33 127.532 219.294 128.569 218.257 126.496 218.257 124.422 218.257 124.422 217.738 121.311 214.628 122.348 211.517 123.385 210.999 118.719 210.999 116.127 211.517 113.017 212.554 111.98 214.628 111.98 217.22 112.498 216.701 116.127 217.22 117.682 217.738 118.719 219.294 118.201 219.294 118.201 218.775 118.201 221.367 117.164 221.886 121.311ZM299.131 135.827C300.168 137.382 300.686 138.938 299.649 139.975 298.612 141.53 296.539 141.011 294.983 140.493 293.428 139.975 291.873 137.382 293.428 134.79 293.947 132.717 297.576 134.272 299.131 135.827ZM295.502 123.903C296.539 123.385 297.576 122.867 298.094 124.94 298.612 126.496 298.094 127.014 297.057 128.051 297.057 128.051 295.502 129.088 294.983 127.532 293.947 125.977 294.465 124.422 295.502 123.903ZM294.983 152.417C296.02 151.38 297.057 150.862 298.094 152.935 299.131 156.046 298.094 158.119 295.502 157.083 292.391 156.564 293.947 153.972 294.983 152.417ZM293.428 148.269C289.799 150.862 288.244 148.269 288.244 144.64 288.244 141.53 289.799 141.011 292.391 142.048 295.502 143.085 296.539 146.196 293.428 148.269ZM290.836 127.532C289.799 131.161 288.244 128.569 285.652 127.532 283.06 126.496 284.097 124.422 285.652 121.83 287.207 119.238 289.799 118.201 292.391 120.793 294.465 123.903 291.873 124.422 290.836 127.532ZM283.578 119.238C282.023 119.756 279.949 118.719 280.468 117.164 280.986 115.609 282.023 115.609 283.578 116.645 284.615 117.164 284.615 118.719 283.578 119.238ZM283.06 131.68C285.652 131.68 286.17 132.717 286.689 134.79 286.689 134.79 287.207 136.864 285.133 137.382 283.06 137.901 280.986 136.346 280.468 134.79 279.949 133.235 280.986 131.68 283.06 131.68ZM275.802 152.935C274.247 151.38 275.802 148.788 277.357 149.306 281.504 150.862 284.097 153.972 282.023 159.156 279.949 163.304 277.357 162.267 277.875 160.193 278.394 157.083 277.357 154.49 275.802 152.935ZM274.247 170.562C274.765 170.043 276.32 169.525 276.839 170.562 277.875 172.635 275.802 173.672 274.765 173.154 272.691 173.154 273.728 171.598 274.247 170.562ZM273.21 167.451C271.654 166.414 273.21 165.377 273.728 164.859 274.247 164.341 276.32 164.341 276.32 165.377 276.32 167.97 274.765 168.488 273.21 167.451ZM280.468 142.048C280.986 144.64 278.394 145.677 274.247 144.64 270.099 143.085 274.765 137.901 276.839 137.382 279.431 136.346 279.949 138.938 280.468 142.048ZM273.728 156.046C275.802 160.193 274.247 162.785 270.099 163.822 265.952 164.859 265.952 161.748 267.507 160.712 269.062 159.675 268.544 159.156 270.099 156.564 271.136 153.972 272.691 154.49 273.728 156.046ZM268.025 145.159C268.025 146.714 266.47 147.751 263.878 146.196 261.286 144.64 260.249 142.567 260.767 139.975 261.286 137.382 262.841 136.864 264.915 137.382 269.062 138.938 268.025 143.085 268.025 145.159ZM260.249 132.717C259.212 133.753 257.657 133.753 256.62 134.272 255.583 134.79 255.065 135.827 254.546 136.864 253.51 137.901 251.954 138.419 251.436 137.901 250.917 137.901 249.881 136.864 249.881 135.827 249.881 134.79 250.399 133.753 251.954 131.68 253.51 130.125 256.102 129.606 257.138 129.088 258.175 128.569 260.249 129.088 260.767 129.606 261.804 131.161 260.767 132.198 260.249 132.717ZM250.917 117.682C252.473 116.127 253.51 117.682 254.028 119.238 254.028 119.238 256.102 123.385 252.473 125.459 248.844 128.051 249.881 124.422 249.881 124.422 251.436 121.311 249.362 119.238 250.917 117.682ZM249.881 113.017C247.288 110.943 249.881 108.869 251.436 107.832 253.51 106.795 254.546 107.314 256.102 108.869 260.249 111.98 252.473 114.572 249.881 113.017ZM251.436 104.722C247.288 105.24 247.288 102.648 249.362 99.0191 251.436 94.8717 254.028 96.9454 255.583 98.5006 258.694 100.574 255.583 104.203 251.436 104.722ZM249.362 155.009C251.954 157.601 248.844 161.23 246.252 160.712 244.178 160.193 244.178 157.083 245.733 155.527 246.77 153.972 247.807 153.972 249.362 155.009ZM235.365 158.119C232.773 155.527 239.512 150.862 241.586 148.788 243.659 146.714 245.733 148.788 243.659 150.343 241.586 151.898 241.067 152.935 241.067 155.009 242.104 160.193 238.475 160.712 235.365 158.119ZM233.809 131.161C231.736 129.088 234.328 127.532 236.402 126.496 238.475 125.977 240.031 126.496 241.586 127.532 242.623 128.569 243.141 130.643 240.549 132.198 237.957 134.272 235.883 133.235 233.809 131.161ZM240.549 143.604C238.475 144.122 237.438 141.011 237.957 138.938 238.475 136.864 240.549 136.346 241.586 136.346 244.178 135.827 243.659 136.864 245.733 137.901 247.807 139.456 247.807 142.567 245.733 142.567 243.659 142.567 242.623 143.085 240.549 143.604ZM246.252 123.903C244.696 124.94 243.141 123.385 242.623 122.348 242.104 121.311 243.141 120.274 243.659 118.719 244.696 117.164 246.77 117.164 247.807 119.238 247.807 121.311 247.288 122.867 246.252 123.903ZM240.031 100.056C236.92 99.5375 237.438 95.3901 238.475 93.3164 239.512 91.2427 241.067 90.7243 243.659 91.7611 245.733 92.798 246.77 93.8348 246.252 96.4269 245.733 99.5375 243.141 100.574 240.031 100.056ZM240.549 105.759C243.141 105.759 245.733 104.203 244.696 109.388 243.659 114.572 241.586 113.535 238.994 111.98 236.402 110.424 234.328 108.869 234.846 106.795 235.365 104.722 237.957 105.759 240.549 105.759ZM236.402 114.053C236.402 114.053 238.475 114.572 238.994 117.682 238.994 120.793 237.957 122.348 235.365 123.385 233.291 124.94 233.291 119.756 233.291 117.682 233.291 115.09 234.328 114.053 236.402 114.053ZM231.736 103.685C229.662 103.685 228.107 103.166 229.662 100.056 231.217 96.9454 233.291 96.9454 233.809 97.9822 236.402 104.203 231.736 103.685 231.736 103.685ZM230.18 113.017C230.18 115.09 229.662 117.164 227.588 116.645 224.996 116.127 223.959 115.609 223.959 114.053 223.959 112.498 225.515 111.98 226.033 110.424 226.551 108.869 226.033 106.277 228.625 107.314 230.18 107.832 230.18 111.98 230.18 113.017ZM229.144 128.051C227.588 129.606 225.515 125.977 226.033 122.867 226.551 119.756 228.107 119.238 229.144 120.274 231.217 121.83 230.699 126.496 229.144 128.051ZM222.923 103.166C220.849 102.648 219.812 98.5006 221.367 97.4638 222.404 96.4269 223.959 96.4269 225.515 98.5006 227.07 100.574 225.515 104.203 222.923 103.166ZM221.886 139.456C220.33 140.493 219.812 142.567 217.22 143.085 214.628 144.122 216.183 138.419 217.738 135.827 219.294 133.235 221.367 134.272 222.404 135.827 222.923 136.346 223.959 138.419 221.886 139.456ZM212.036 132.198C213.072 131.161 213.591 131.68 214.109 132.717 214.109 132.717 214.628 133.235 213.591 135.827 212.554 138.419 210.999 139.456 208.925 139.456 206.851 138.938 207.37 136.346 209.443 135.309 210.48 134.272 210.999 133.235 212.036 132.198ZM203.222 131.68C200.112 131.68 200.112 128.051 201.667 125.977 203.222 124.422 204.259 124.422 206.333 124.94 207.888 125.459 208.925 126.496 208.925 128.569 209.443 131.161 206.333 131.68 203.222 131.68ZM203.222 110.943C204.778 109.388 205.814 109.906 206.333 110.424 207.37 111.461 208.407 115.09 206.851 117.164 205.296 119.238 203.222 118.719 202.186 116.645 201.667 114.053 201.667 112.498 203.222 110.943ZM202.186 106.795C198.557 108.351 198.038 105.24 199.593 101.611 200.63 97.9822 201.149 98.5006 204.778 97.9822 207.888 97.4638 207.888 99.0191 208.407 101.611 208.925 104.203 205.296 104.722 202.186 106.795ZM197.52 158.119C197.52 157.083 198.557 157.083 199.593 157.083 200.63 157.083 201.149 158.119 201.149 160.193 201.149 162.267 200.112 163.822 198.557 163.822 197.52 163.822 197.001 162.785 197.52 161.748 197.52 160.712 197.52 159.156 197.52 158.119ZM199.593 146.714C198.038 145.159 200.63 144.64 202.186 143.604 203.741 142.567 204.259 143.085 205.296 144.122 207.888 146.196 207.888 147.233 207.37 148.269 206.851 149.306 205.814 148.788 203.222 149.825 200.63 150.862 201.149 147.751 199.593 146.714ZM204.778 156.046C204.778 154.49 205.814 154.49 206.333 153.972 208.407 152.935 208.925 153.972 209.443 155.009 209.962 156.046 210.48 157.083 212.036 157.601 213.591 158.119 214.109 157.601 214.109 159.675 214.109 161.23 211.517 161.748 209.962 161.748 208.925 161.748 206.851 161.23 205.814 160.712 204.259 159.675 204.778 157.601 204.778 156.046ZM210.999 150.343C209.962 148.269 210.999 145.677 213.591 146.196 215.665 146.714 215.665 148.269 218.257 147.751 220.849 147.751 220.849 148.788 220.33 149.825 219.812 150.862 219.294 150.343 216.701 151.898 214.109 153.454 212.036 152.417 210.999 150.343ZM218.775 160.193C220.849 158.119 219.294 155.009 221.886 153.972 224.996 152.417 226.033 154.49 227.07 157.083 227.588 159.675 228.625 160.712 224.478 163.304 219.812 166.414 217.22 162.785 218.775 160.193ZM224.478 148.788C221.886 146.714 222.404 143.604 223.959 142.048 225.515 140.493 226.033 141.53 227.07 143.085 227.07 143.085 227.588 145.159 228.107 147.751 228.625 150.343 227.07 150.862 224.478 148.788ZM227.588 132.717C229.144 130.643 231.217 133.753 231.736 135.309 231.736 135.309 232.773 138.419 232.773 140.493 232.773 142.567 231.736 143.604 229.662 141.011 227.588 138.938 226.033 134.79 227.588 132.717ZM229.662 152.417C230.18 151.898 231.217 150.343 231.736 148.788 232.254 147.233 233.291 146.196 234.328 147.233 235.883 149.825 233.809 152.417 231.736 153.972 229.662 155.009 228.625 153.454 229.662 152.417ZM254.546 186.633C256.102 186.633 257.138 188.188 256.102 189.743 255.065 191.299 251.954 190.78 251.954 189.225 251.436 187.151 252.473 186.114 254.546 186.633ZM251.436 169.525C250.399 167.97 250.399 166.933 251.436 163.822 251.954 160.712 254.028 159.156 256.102 161.23 258.175 163.304 257.138 168.488 257.138 168.488 256.102 170.562 252.473 171.08 251.436 169.525ZM252.991 150.343C252.991 147.233 254.028 145.677 256.102 146.196 261.286 147.751 260.249 151.38 257.657 153.972 255.065 157.083 252.473 153.454 252.991 150.343ZM260.767 153.972C261.804 152.417 262.841 152.417 263.36 152.935 268.544 157.601 263.36 159.675 260.249 159.156 257.657 158.638 260.249 155.527 260.767 153.972ZM261.286 161.23C263.36 161.748 262.841 163.822 261.804 164.859 260.767 165.896 259.731 164.341 259.731 163.304 259.212 162.785 260.249 161.23 261.286 161.23ZM260.249 187.67C260.249 187.67 262.323 179.893 264.396 177.82 264.396 177.82 264.915 177.301 264.915 177.301 265.952 177.301 266.989 177.301 268.025 176.783 271.654 176.264 272.691 175.227 274.247 177.82 275.802 180.412 278.912 183.522 282.541 182.485 282.023 182.485 280.986 183.004 280.468 183.004 274.765 185.078 274.765 185.596 270.099 186.633 265.952 187.67 267.507 187.67 261.286 188.188 261.286 187.151 260.767 187.67 260.249 187.67ZM279.431 175.227C280.468 172.635 283.578 172.117 285.133 174.191 285.133 174.191 286.17 175.746 285.133 177.301 284.615 178.856 278.912 177.82 279.431 175.227ZM284.615 166.414C282.541 167.451 280.986 165.377 280.986 163.822 280.986 162.267 282.023 160.712 284.615 161.23 288.244 162.785 287.207 165.896 284.615 166.414ZM285.652 156.046C284.097 154.49 285.652 151.38 288.244 153.972 293.947 159.156 290.836 163.304 289.281 162.267 288.244 161.23 287.207 158.119 285.652 156.046ZM291.355 166.414C293.947 164.859 293.947 162.785 296.02 163.304 297.576 163.822 298.094 164.859 299.649 166.414 300.686 167.97 299.649 169.525 296.539 169.525 293.428 169.525 290.836 170.562 289.799 169.525 287.726 168.488 288.762 167.97 291.355 166.414ZM298.612 174.191C301.723 175.227 302.241 178.338 298.612 178.338 294.983 178.338 291.873 178.856 292.391 176.783 292.391 174.709 295.502 173.154 298.612 174.191ZM297.057 181.449C297.057 181.449 300.168 180.93 301.205 182.485 302.241 184.559 300.168 185.596 297.057 185.078 293.947 185.078 295.502 181.967 297.057 181.449ZM301.205 131.68C301.205 129.606 300.686 124.94 303.797 127.532 306.907 130.125 311.055 138.419 304.315 136.346 301.205 135.309 300.686 134.272 301.205 131.68ZM305.352 156.564C308.463 160.193 307.944 164.859 304.834 165.377 302.241 165.896 301.723 160.712 301.205 157.601 300.686 154.49 303.797 155.009 305.352 156.564ZM304.834 148.269C306.389 147.233 307.426 147.233 308.981 148.788 310.536 150.862 308.981 154.49 306.907 153.972 304.315 153.454 303.278 149.306 304.834 148.269ZM309.499 164.859C309.499 161.748 311.055 162.785 312.61 163.304 314.684 163.822 314.684 166.933 312.61 168.488 310.536 169.525 309.499 167.97 309.499 164.859ZM315.72 130.125C317.276 131.161 317.794 133.753 315.72 134.79 313.647 135.827 310.018 133.753 311.055 131.161 311.573 129.088 313.647 128.569 315.72 130.125ZM319.349 143.085C320.386 145.159 319.349 146.714 315.72 145.159 314.165 144.64 312.091 144.122 307.426 144.122 303.278 144.122 303.278 141.011 305.352 140.493 307.426 139.975 308.981 139.456 311.055 138.938 316.239 137.382 318.313 141.011 319.349 143.085ZM307.426 121.83C308.463 121.311 309.499 121.83 310.018 123.385 310.536 125.459 308.463 127.014 307.426 125.977 305.87 125.459 306.389 122.348 307.426 121.83ZM290.318 108.351C295.502 107.314 296.02 108.869 295.502 110.424 295.502 111.98 291.873 110.943 292.391 112.498 292.391 114.053 295.502 116.645 297.057 114.572 298.612 113.017 301.723 111.98 303.278 114.572 304.315 117.164 300.686 119.756 297.057 118.719 295.502 118.201 294.983 117.164 290.318 115.609 285.652 114.572 285.652 109.388 290.318 108.351ZM279.949 104.203C280.468 103.166 280.468 102.13 280.468 101.093 280.986 100.056 282.023 99.0191 283.578 98.5006 284.615 98.5006 285.652 99.5375 286.689 101.093 287.726 102.648 287.207 104.722 285.652 106.277 284.097 107.832 282.541 107.314 280.986 107.314 279.949 106.795 279.431 105.24 279.949 104.203ZM276.32 128.051C273.21 127.532 271.136 125.459 272.691 124.422 274.247 123.385 276.32 121.83 278.912 123.903 282.541 126.496 278.912 128.569 276.32 128.051ZM276.839 107.832C276.839 108.869 277.875 109.906 278.394 110.424 278.912 110.943 278.912 112.498 277.357 113.535 276.32 114.572 276.32 116.127 276.32 117.682 276.32 119.238 274.247 120.274 273.21 120.274 272.173 120.274 271.136 119.238 271.654 117.682 271.654 116.127 272.691 115.09 273.728 113.535 274.765 111.98 274.765 110.943 274.765 108.869 274.247 106.795 276.32 106.795 276.839 107.832ZM270.618 94.3532C272.173 91.2427 274.247 89.6874 275.283 91.7611 276.839 95.3901 272.691 100.056 272.691 100.056 270.099 104.203 269.062 97.4638 270.618 94.3532ZM272.691 130.643C275.802 132.198 274.765 136.346 271.654 136.864 268.025 137.382 266.47 133.235 267.507 131.161 269.062 129.606 270.099 129.606 272.691 130.643ZM266.47 88.1321C267.507 89.169 269.062 92.2795 266.47 93.8348 263.878 95.9085 261.286 93.8348 261.286 91.2427 261.286 88.1321 263.878 86.0585 266.47 88.1321ZM263.36 100.574C265.433 99.5375 266.47 100.574 266.989 101.093 268.025 102.648 267.507 106.795 265.433 108.351 263.36 109.906 261.286 108.869 260.767 106.277 260.767 103.685 261.286 101.611 263.36 100.574ZM264.915 119.238C266.47 122.867 263.36 123.385 261.286 125.459 259.731 127.532 256.62 127.014 257.657 124.94 258.694 122.867 258.694 121.311 258.175 119.238 257.657 117.682 257.657 116.127 258.694 115.09 260.767 114.053 262.841 115.09 264.915 119.238ZM254.028 82.4295C256.62 80.8742 257.657 81.9111 258.175 82.9479 259.212 84.5032 258.694 89.6874 256.102 91.7611 253.51 93.8348 250.917 92.2795 250.399 89.169 250.917 86.0585 251.954 83.9848 254.028 82.4295ZM245.733 78.2821C245.733 78.2821 246.77 77.2452 247.807 77.2452 248.844 77.2452 249.881 77.7637 250.399 79.3189 250.917 80.8742 249.881 82.4295 248.844 82.4295 247.807 82.4295 245.733 82.4295 245.215 81.3926 244.178 80.8742 244.696 79.3189 245.733 78.2821ZM243.659 85.0216C244.696 85.54 244.696 87.0953 243.659 87.6137 242.104 88.1321 241.586 88.1321 240.031 87.0953 240.031 87.0953 238.475 86.0585 240.031 85.0216 241.586 83.9848 242.623 84.5032 243.659 85.0216ZM235.883 75.1715C238.475 75.1715 240.549 75.1715 241.067 77.2452 241.586 79.3189 241.067 80.3558 238.994 81.9111 236.92 83.4663 234.328 85.54 233.291 82.9479 232.773 79.8374 233.291 75.1715 235.883 75.1715ZM233.291 87.6137C235.365 90.7243 233.809 92.2795 231.217 94.8717 228.625 96.9454 228.107 93.8348 226.551 91.7611 225.515 89.6874 225.515 88.1321 228.107 86.5769 231.217 85.0216 231.736 85.54 233.291 87.6137ZM226.033 73.0978C227.588 73.0978 228.107 73.6163 229.662 74.6531 231.217 75.69 230.18 77.7637 228.625 77.2452 227.07 76.7268 225.515 78.2821 223.959 78.2821 222.404 78.2821 222.404 77.7637 221.886 76.2084 221.367 74.6531 224.478 73.0978 226.033 73.0978ZM222.923 81.9111C224.478 82.4295 224.478 83.9848 223.959 84.5032 223.441 85.54 222.404 87.0953 221.886 88.1321 221.367 89.169 221.367 90.7243 221.367 91.2427 221.367 92.798 220.33 93.8348 219.294 94.3532 218.775 94.8717 217.738 94.3532 216.701 93.3164 216.183 92.2795 215.665 91.2427 216.183 88.6506 216.701 86.0585 218.257 84.5032 219.294 83.4663 220.33 82.4295 221.886 81.3926 222.923 81.9111ZM215.665 72.5794C216.701 72.061 217.738 72.061 218.257 73.6163 218.775 75.1715 218.257 75.69 217.22 76.7268 217.22 76.7268 215.665 77.7637 215.146 76.2084 214.109 74.6531 214.628 73.0978 215.665 72.5794ZM214.109 103.685C214.628 101.093 216.183 100.056 218.257 101.093 221.886 103.685 219.812 107.832 217.22 108.351 214.109 109.388 213.591 106.277 214.109 103.685ZM204.259 86.0585C204.259 86.0585 209.962 82.9479 207.37 81.9111 205.296 80.8742 205.814 75.1715 206.851 72.5794 207.37 69.9873 209.443 70.5057 210.48 71.5426 211.517 72.5794 210.999 76.2084 210.999 78.2821 210.999 80.3558 210.999 80.8742 209.962 82.4295 208.925 83.9848 208.925 83.4663 211.517 84.5032 214.109 85.54 210.999 89.169 209.443 90.2058 207.888 91.2427 206.851 94.8717 204.259 92.798 201.667 90.7243 203.222 87.0953 204.259 86.0585ZM198.557 71.5426C200.112 69.4689 202.186 69.9873 202.704 72.061 203.222 74.1347 203.222 75.69 201.667 77.2452 200.63 78.8005 199.075 78.2821 198.557 77.7637 198.038 76.7268 197.52 73.6163 198.557 71.5426ZM198.557 81.9111C199.075 82.9479 199.075 83.9848 197.52 86.0585 195.964 88.1321 195.964 89.169 196.483 92.798 197.001 96.4269 195.964 99.0191 192.854 96.4269 189.743 93.8348 189.225 91.2427 190.262 89.6874 191.299 88.1321 191.817 85.54 193.372 82.9479 194.928 80.8742 197.52 79.8374 198.557 81.9111ZM190.262 71.0241C192.854 69.4689 193.372 73.0978 193.372 75.1715 193.891 77.2452 192.854 77.7637 192.335 77.7637 185.596 77.7637 187.67 72.5794 190.262 71.0241ZM192.335 100.056C195.446 103.685 194.928 105.24 191.299 104.722 187.67 104.203 184.041 102.648 186.633 100.056 189.225 97.4638 191.299 98.5006 192.335 100.056ZM186.114 92.798C185.078 93.8348 184.041 95.9085 183.522 97.4638 182.485 99.0191 181.449 99.0191 180.412 98.5006 179.375 97.4638 179.893 96.4269 180.93 95.3901 181.967 94.3532 181.967 93.3164 181.967 92.2795 181.967 90.2058 184.041 89.169 185.078 89.6874 186.114 90.2058 187.67 91.2427 186.114 92.798ZM183.522 72.5794C185.078 73.6163 185.078 74.1347 185.078 75.69 185.078 75.69 185.078 77.2452 183.522 76.7268 181.967 76.2084 181.449 74.6531 181.449 73.6163 181.449 72.5794 182.485 72.061 183.522 72.5794ZM181.449 82.9479C184.041 83.9848 184.041 86.5769 182.485 87.6137 180.93 89.169 179.893 87.0953 179.375 85.54 179.375 84.5032 180.412 82.4295 181.449 82.9479ZM177.82 93.8348C176.783 94.3532 174.709 93.8348 174.709 92.2795 174.709 90.7243 175.746 90.2058 177.301 90.7243 179.893 91.2427 178.856 93.3164 177.82 93.8348ZM173.672 75.69C174.709 74.6531 176.783 73.0978 177.82 76.2084 178.338 77.2452 179.375 80.3558 177.82 80.8742 176.264 81.3926 174.709 80.8742 174.191 79.8374 173.154 79.3189 172.635 76.7268 173.672 75.69ZM166.414 75.69C168.488 74.1347 170.043 77.2452 170.043 78.8005 170.043 78.8005 170.562 81.9111 170.562 83.9848 170.562 86.0585 169.525 87.0953 167.451 83.9848 165.377 81.9111 164.341 77.2452 166.414 75.69ZM169.525 93.8348C169.525 93.8348 170.043 94.8717 173.154 96.9454 176.264 99.0191 172.117 101.611 170.562 101.093 168.488 100.574 167.97 100.056 165.896 101.611 163.822 103.166 160.193 104.203 160.712 100.056 160.712 95.9085 163.822 95.3901 165.377 94.3532 165.377 92.798 169.006 91.2427 169.525 93.8348ZM161.748 80.3558C166.414 89.6874 160.193 91.2427 160.193 88.6506 160.193 86.0585 159.156 82.4295 158.119 79.8374 157.601 77.2452 160.193 77.2452 161.748 80.3558ZM155.527 112.498C156.046 109.388 157.083 109.906 158.638 109.388 161.748 107.832 164.341 108.351 166.933 109.906 169.525 111.461 166.414 113.017 164.859 115.09 163.304 117.682 162.267 115.09 159.156 116.127 155.527 116.645 155.009 115.09 155.527 112.498ZM154.49 149.306C152.417 152.935 148.788 150.343 147.751 148.269 146.714 146.196 149.306 143.085 152.417 143.604 155.009 144.64 156.046 146.714 154.49 149.306ZM151.38 82.4295C151.898 81.3926 152.935 80.8742 153.972 81.9111 155.009 82.9479 155.009 83.9848 154.49 85.54 154.49 85.54 153.972 87.0953 152.417 86.5769 151.38 85.54 150.862 83.4663 151.38 82.4295ZM150.343 92.798C151.38 91.7611 152.417 92.2795 153.454 93.3164 153.454 93.3164 155.009 97.4638 155.009 99.5375 155.009 101.093 153.454 102.13 151.38 102.13 149.306 102.13 148.788 100.574 147.233 98.5006 145.677 96.9454 147.233 95.9085 148.788 95.3901 149.825 94.8717 149.306 93.8348 150.343 92.798ZM147.233 84.5032C148.269 86.0585 147.751 88.6506 146.196 90.2058 144.64 91.2427 142.048 88.1321 142.048 86.5769 142.567 85.0216 146.196 82.9479 147.233 84.5032ZM144.64 102.648C147.751 103.685 149.306 105.759 146.714 108.351 144.122 110.424 143.604 107.314 142.567 105.759 141.53 104.722 142.048 102.13 144.64 102.648ZM136.346 89.6874C141.011 88.6506 143.085 94.8717 141.011 96.9454 138.938 99.0191 136.864 99.5375 135.309 96.9454 134.272 94.8717 131.68 90.2058 136.346 89.6874ZM135.827 116.645C135.309 119.238 134.272 121.311 131.68 122.348 129.088 122.867 129.606 120.793 129.606 118.201 129.088 115.609 130.125 114.053 130.643 112.498 131.68 110.943 132.198 110.943 133.235 110.943 137.382 110.424 135.827 114.053 135.827 116.645ZM130.125 96.4269C132.198 99.5375 133.753 103.166 130.125 103.166 126.496 103.166 125.977 101.093 125.977 99.0191 126.496 94.3532 128.051 93.3164 130.125 96.4269ZM127.532 136.864C129.606 137.901 129.606 142.567 127.014 141.53 124.422 140.493 122.867 142.048 121.83 141.011 120.274 139.975 121.311 138.938 123.385 136.864 125.459 135.309 127.014 136.346 127.532 136.864ZM124.94 130.125C124.94 131.68 124.94 132.717 121.83 133.235 118.719 133.753 120.793 129.606 121.311 127.014 121.83 124.422 123.385 125.459 123.903 126.496 124.422 127.014 124.94 128.569 124.94 130.125ZM117.682 104.203C118.719 102.648 120.274 102.13 122.348 103.685 125.459 105.24 124.422 110.424 121.83 110.424 118.719 110.424 116.645 105.759 117.682 104.203ZM121.83 116.127C122.867 117.164 124.422 120.274 121.83 122.348 119.238 124.422 116.645 122.348 116.645 119.238 116.645 116.127 119.238 114.053 121.83 116.127ZM114.053 108.351C116.127 108.869 115.09 110.943 114.572 111.98 113.535 112.498 111.461 111.98 111.461 110.424 111.461 108.869 112.498 107.832 114.053 108.351ZM110.943 131.68C111.461 130.643 112.498 128.569 111.98 125.459 111.461 122.867 111.461 121.83 113.535 123.903 115.609 125.977 116.127 128.051 116.127 128.051 117.164 130.643 116.645 132.198 114.053 132.717 110.943 133.235 110.424 132.717 110.943 131.68ZM109.906 139.456C111.461 138.938 111.461 141.011 111.461 143.085 111.461 145.159 110.943 145.159 108.869 146.714 106.795 148.269 106.795 145.677 106.277 144.122 105.759 143.085 106.277 141.53 107.314 140.493 107.314 139.456 108.351 139.456 109.906 139.456ZM101.093 119.756C102.13 118.201 103.166 118.201 105.24 119.238 107.832 120.793 107.314 124.94 104.722 124.94 102.13 124.94 100.056 120.793 101.093 119.756ZM95.3901 126.496C96.4269 124.94 97.9822 124.94 99.0191 125.977 99.5375 126.496 100.574 127.532 100.574 129.088 100.574 131.161 99.5375 131.68 97.9822 131.68 96.4269 131.68 95.3901 132.717 93.8348 131.68 92.2795 130.125 94.3532 128.051 95.3901 126.496ZM93.3164 136.346C94.8717 137.382 95.3901 139.456 93.3164 140.493 91.2427 141.53 88.1321 139.456 88.6506 137.382 89.169 135.309 90.7243 134.79 93.3164 136.346ZM85.0216 144.64C86.0585 144.122 87.0953 144.64 88.1321 145.677 89.169 146.714 91.2427 148.788 93.3164 150.343 94.8717 151.898 95.3901 151.898 95.3901 152.935 95.3901 153.972 93.3164 154.49 92.2795 152.417 91.2427 150.343 89.6874 150.343 88.6506 150.862 87.6137 151.38 85.54 150.343 84.5032 148.269 82.9479 147.233 83.9848 145.159 85.0216 144.64ZM79.8374 155.527C80.8742 153.972 82.9479 153.972 85.0216 155.527 87.0953 157.083 87.6137 159.156 86.0585 159.675 84.5032 160.193 84.5032 162.267 83.4663 162.785 82.4295 163.304 80.3558 161.748 79.3189 160.712 78.8005 159.156 79.3189 156.564 79.8374 155.527ZM79.3189 190.262C77.7637 189.743 77.2452 189.225 77.7637 186.633 78.2821 184.041 80.3558 183.004 80.8742 182.485 81.9111 181.967 82.4295 181.967 82.9479 183.004 82.9479 183.004 83.4663 184.041 83.4663 185.078 83.4663 185.596 83.4663 186.633 82.9479 187.67 82.4295 188.706 82.9479 189.225 82.4295 190.262 82.4295 190.78 80.3558 190.78 79.3189 190.262ZM80.8742 199.075C80.3558 200.63 77.7637 202.186 76.7268 203.222 75.69 204.259 73.0978 205.814 72.061 204.778 71.0241 203.741 71.5426 200.63 73.6163 200.112 75.69 199.593 76.2084 197.52 77.2452 196.483 79.8374 194.928 81.9111 196.483 80.8742 199.075ZM75.69 166.414C75.1715 164.859 76.7268 164.341 78.2821 166.414 79.8374 167.97 80.3558 167.97 80.8742 168.488 81.3926 169.006 81.9111 170.043 81.3926 171.08 80.8742 171.598 80.3558 172.117 78.2821 172.635 76.7268 172.635 75.1715 172.117 74.6531 170.562 74.6531 168.488 76.2084 167.97 75.69 166.414ZM73.0978 177.82C74.1347 176.783 74.6531 176.783 76.7268 176.783 78.2821 176.783 78.8005 178.338 77.7637 178.856 76.7268 179.375 76.2084 181.449 75.69 181.967 74.6531 183.004 74.1347 182.485 72.5794 181.967 70.5057 181.449 72.061 178.856 73.0978 177.82ZM71.0241 190.78C71.5426 189.743 71.5426 189.225 73.0978 189.225 74.1347 189.225 74.1347 189.743 74.6531 190.78 74.6531 191.299 75.1715 191.299 75.1715 191.817 75.69 192.335 75.1715 192.854 74.6531 193.372 74.6531 193.372 73.6163 194.409 72.5794 193.891 71.0241 193.372 70.5057 191.817 71.0241 190.78ZM338.013 206.851C337.494 242.623 322.46 275.283 298.612 299.131 274.247 323.497 241.067 338.531 203.741 338.531 166.414 338.531 133.235 323.497 108.869 299.131 86.0585 276.32 71.5426 245.215 69.9873 210.48 69.9873 210.48 69.9873 209.962 69.9873 209.962 72.061 209.443 75.1715 208.407 77.2452 206.851 81.3926 203.741 82.9479 203.741 85.54 204.259 88.1321 204.778 90.7243 204.259 92.2795 202.704 93.8348 201.667 94.8717 200.63 96.9454 200.63 99.0191 200.63 101.093 199.075 103.166 197.52 105.24 195.964 107.314 193.891 109.906 194.409 112.498 194.928 114.572 195.446 116.645 194.928 118.201 194.409 120.793 192.335 121.83 190.78 122.867 188.706 124.94 186.114 127.532 185.596 128.569 185.078 131.161 185.078 133.235 184.559 136.864 185.596 139.456 188.706 143.604 190.78 147.751 192.854 151.898 194.928 156.046 196.483 160.193 198.038 163.822 198.557 167.451 200.63 171.08 202.704 169.525 201.149 171.598 203.222 171.598 203.222 174.191 204.778 174.191 205.814 174.191 206.851 174.191 208.925 174.191 208.925 173.672 212.554 173.672 215.665 173.154 217.22 172.635 218.775 172.635 219.812 172.117 221.886 171.598 222.923 171.08 223.959 171.08 225.515 170.562 227.07 170.043 228.107 169.525 229.144 169.006 230.18 169.006 232.773 167.451 233.291 166.414 233.809 163.822 234.846 162.785 234.846 161.23 234.846 159.156 235.365 157.601 235.883 156.564 236.402 154.49 237.438 152.417 237.957 150.343 238.475 148.269 238.475 145.677 238.475 143.085 238.994 143.085 238.994 140.493 238.994 137.901 238.994 135.827 237.957 134.272 237.957 132.717 237.957 131.161 237.957 129.606 238.475 128.051 239.512 128.051 240.549 128.569 241.586 129.088 242.623 130.125 243.659 132.717 244.178 135.309 244.696 136.864 244.696 138.419 244.696 140.493 244.696 143.604 244.696 145.677 244.696 147.751 244.696 151.898 244.696 153.972 244.178 156.564 243.659 159.156 242.623 161.23 242.104 161.23 242.104 163.822 241.586 165.377 241.586 166.933 241.586 169.006 242.623 170.043 242.623 171.08 242.623 175.227 243.141 177.301 243.141 179.375 243.141 182.485 243.659 184.559 243.141L194.409 242.104C199.593 242.104 198.557 237.957 196.483 237.438 195.446 236.92 192.854 237.957 191.817 237.957 191.817 237.957 187.151 238.475 184.559 235.883 183.522 234.846 183.522 233.291 184.559 230.699 185.596 228.107 185.596 226.033 184.559 223.959 184.041 222.404 184.041 221.367 184.041 220.33 184.559 219.294 184.559 217.738 185.596 217.22 187.67 214.628 189.743 215.146 190.78 215.665 190.78 215.665 192.335 216.701 191.817 218.775 191.299 220.849 190.262 220.849 190.262 221.886 190.262 222.923 190.262 223.441 190.78 224.478 191.299 225.515 191.817 226.551 190.78 228.107 188.706 230.18 190.262 231.736 191.817 232.254 191.817 232.254 195.446 232.254 197.001 231.217 198.557 230.18 199.075 228.625 199.075 227.07 199.075 225.515 197.001 224.996 199.075 222.923 201.149 220.849 200.112 218.775 200.112 217.22 200.112 215.665 200.63 215.665 201.149 213.591 201.667 211.517 200.112 209.962 199.075 211.517 198.038 213.072 197.52 207.37 198.038 206.333 199.075 205.296 199.075 204.778 200.112 203.222 200.63 201.667 201.149 202.186 200.63 200.112 200.112 198.038 199.075 199.075 198.038 199.075 195.964 198.038 197.001 194.409 197.52 191.299 198.038 188.706 199.593 191.299 201.667 193.891 203.222 196.483 203.741 190.78 202.704 188.188 202.186 186.114 203.222 181.449 202.704 179.375 202.186 177.301 201.667 174.709 202.704 172.635 203.222 171.598 203.741 167.451 203.741 163.822 204.778 162.267 205.814 161.23 209.443 161.748 209.443 162.785 209.443 163.822 209.443 164.341 208.925 165.896 208.925 167.451 207.888 169.006 206.851 170.562 207.888 173.154 208.925 173.672 209.962 174.191 209.443 174.709 208.925 176.264 208.407 177.301 207.888 178.338 208.925 179.375 209.962 179.893 208.925 179.893 208.925 181.967 208.925 184.041 209.443 183.004 208.925 185.596 208.407 188.188 208.407 190.262 209.962 190.262 211.517 190.262 213.072 189.743 213.591 190.78 214.109 192.335 214.628 195.446 216.183 194.409 217.738 193.891 218.775 192.335 218.775 190.262 218.775 187.67 217.738 185.596 217.738 182.485 217.738 178.856 217.738 178.856 218.257 175.746 218.775 172.635 218.775 172.635 218.257 169.525 217.738 167.97 217.738 166.933 217.738 165.896 218.775 166.933 220.33 167.451 224.478 167.97 224.478 168.488 224.478 168.488 223.959 169.006 222.404 171.08 222.404 172.117 223.441 173.672 223.959 175.227 226.551 175.746 224.478 178.338 222.923 179.893 223.959 182.485 226.551 182.485 229.662 181.967 230.699 182.485 230.18 184.559 229.662 187.151 231.736 187.151 232.773 187.151 238.994 186.633 238.994 194.409 235.365 195.446 231.736 195.964 231.736 196.483 229.662 197.52 227.588 198.557 227.07 202.186 228.107 203.741 229.144 205.296 229.662 206.333 228.625 207.888 227.588 209.443 227.07 210.999 228.107 212.554 229.144 214.109 229.662 216.183 228.107 217.738 226.551 219.294 226.033 222.923 227.07 224.996 228.107 227.07 229.662 229.662 228.107 230.699 226.551 231.736 226.551 231.217 223.959 231.217 221.367 230.699 220.33 231.736 219.294 229.662 218.257 227.588 220.849 228.107 220.849 225.515 220.849 222.923 220.849 225.515 220.849 222.923 220.849 220.33 222.923 218.257 221.886 215.146 220.849 212.036 223.441 211.517 222.404 208.925 221.367 206.851 219.294 206.333 218.775 203.741 218.257 201.149 218.257 199.593 215.665 200.112 213.072 200.112 215.146 211.517 214.628 215.146 214.109 218.775 213.591 220.849 214.109 222.404 214.628 224.478 214.628 224.478 214.628 226.551 214.628 229.662 213.072 230.18 213.591 231.736 214.109 233.291 213.591 234.328 211.517 234.328 209.443 234.328 207.37 235.365 206.851 237.438 206.333 238.994 208.925 239.512 210.48 238.994 212.554 238.475 215.665 237.438 217.22 238.475 217.22 238.475 220.33 240.549 222.923 240.549 225.515 241.067 229.662 241.586 231.736 241.586 233.809 241.586 241.586 241.586 245.733 240.549 249.881 239.512 255.065 238.475 258.175 239.512 258.175 239.512 264.915 242.104 266.989 242.104 269.581 242.104 275.283 241.586 277.875 242.104 280.468 242.623 287.207 243.141 289.281 243.141 291.873 243.141 293.947 242.623 293.428 241.067 292.391 239.512 291.355 239.512 288.244 238.475 285.133 237.438 285.133 236.402 279.949 236.402 274.765 236.92 273.728 237.438 271.654 237.438 269.581 237.438 267.507 235.883 264.396 234.328 261.286 232.773 257.657 231.217 255.065 231.736 252.473 232.254 245.733 233.291 243.659 232.773 241.067 232.254 236.92 230.699 235.883 227.588 233.291 226.551 233.291 224.996 233.291 222.404 234.846 217.22 233.291 210.48 233.291 210.48 233.291 210.48 233.291 207.888 233.809 206.851 234.328 205.814 235.365 202.704 236.92 202.186 238.994 201.149 240.031 200.63 242.623 200.112 245.215 200.112 248.325 199.075 251.436 198.557 254.546 198.038 266.989 195.964 270.618 194.409 274.247 192.854 277.357 191.817 280.468 190.262 282.541 189.225 286.17 188.706 289.281 188.188 290.318 190.262 293.428 192.335 299.649 189.743 306.907 186.633 307.944 187.151 311.055 191.299 313.647 194.928 315.72 195.964 319.349 196.483 322.978 197.001 325.052 197.001 326.607 199.593 327.644 202.186 328.681 205.296 332.828 204.778 334.384 204.778 336.457 205.296 338.013 206.851 338.013 206.333 338.013 206.333 338.013 206.851Z" fill="#FFFFFF" fill-rule="nonzero" fill-opacity="1" transform="matrix(1.00245 0 0 1 845 1302)"/></g></g></g><text fill="#FFFFFF" fill-opacity="1" font-family="Baskerville,Baskerville_MSFontService,sans-serif" font-style="normal" font-variant="normal" font-weight="400" font-stretch="normal" font-size="156" text-anchor="start" direction="ltr" writing-mode="lr-tb" unicode-bidi="normal" text-decoration="none" transform="matrix(1 0 0 1 1357.19 1464)">Graduate School of Medicine<tspan fill="#FFFFFF" fill-opacity="1" font-family="Baskerville,Baskerville_MSFontService,sans-serif" font-style="normal" font-variant="normal" font-weight="400" font-stretch="normal" font-size="156" text-anchor="start" direction="ltr" writing-mode="lr-tb" unicode-bidi="normal" text-decoration="none" x="0" y="187">Kyoto</tspan><tspan fill="#FFFFFF" fill-opacity="1" font-family="Baskerville,Baskerville_MSFontService,sans-serif" font-style="normal" font-variant="normal" font-weight="400" font-stretch="normal" font-size="156" text-anchor="start" direction="ltr" writing-mode="lr-tb" unicode-bidi="normal" text-decoration="none" x="422.056" y="187">University</tspan></text></g></svg>